<svg xmlns="http://www.w3.org/2000/svg" viewBox="0 0 3998.9 1547.9"><defs><style>.cls-1{fill:none;}.cls-2{fill:#12100b;}</style></defs><title>Asset 1</title><g id="Layer_2" data-name="Layer 2"><g id="Layer_1-2" data-name="Layer 1"><path d="M555.66,136c-1.21,2.12-2,2.21-6,.7s-4.92-1.44-7.1.56c-1.54,1.42-5.2,2.38-9.41,2.46s-7.9,1.05-9.63,2.6a7.86,7.86,0,0,1-6.82,1.77c-11.53-2-19.7-1.73-30.5.87a188.09,188.09,0,0,1-19.68,3.62c-5.91.61-8.54,1.56-9.56,3.44-1.13,2.1-3,2.6-9.77,2.6-6,0-8.36.51-8.36,1.83,0,2.4-5.91,5.2-11,5.2a19.9,19.9,0,0,0-7.66,2,21.28,21.28,0,0,1-8.5,2c-4.92-.07-22.72,5.91-25.3,8.49a6,6,0,0,1-3.8,1.55,6.34,6.34,0,0,0-3.58,1.12,31.93,31.93,0,0,1-7,2.95c-3.09,1-9.42,3.6-14.06,5.77s-10.77,4.95-13.63,6.18a31.79,31.79,0,0,0-7,4c-1,1-4.92,3.24-8.86,5.13a118.78,118.78,0,0,0-12.65,7.17c-3.05,2.06-9.77,6-14.69,8.57s-10.51,6.23-12.23,7.94-3.88,3.17-4.71,3.17c-5.58,0-14.87,8.62-19.21,11.46-12.15,8-24.31,16-36,24.59-2.69,2-5,5.58-7.88,7-2.38,1.13-11.25,8.84-33.74,29.35-11.24,10.26-10.73,9.75-19.86,19.84-21.24,23.47-47.17,54.3-56.65,67.33C96.25,407.4,81,429.51,80.06,432c-.49,1.27-1.62,2.39-2.4,2.39a1.44,1.44,0,0,0-1.47,1.48c0,.82-2.35,4.7-5.31,8.78C61.69,457.3,28.65,517.06,26.49,521,18.34,536,0,560.72,0,580.57c0,12.09,57.58,88.53,82,76.62,3.59-1.75,13.75-11.11,14.07-15.51.16-2.16.2-4.7,2-5.94a8.06,8.06,0,0,1,2.65-.94c6.69-1.74,11.26-7.77,14.93-13.63s7.29-12.23,13.37-15.51a3.83,3.83,0,0,0,1.48-1.11c.76-1.13,0-2.61-.24-3.95-.56-3.38,2.48-6.2,5.29-8.17,4.78-3.35,8.78-10,11.41-15.17,1.51-3,1.18-4.57,3.43-6.7,2.42-2.3,8.73-5.51,8.73-9.52,0-2.53,7.35-15.76,9.14-16.45,1-.38,2.19-2.53,2.64-4.78.73-3.63,2.52-6.18,10.78-15.32,5.21-5.76,11.18-14.92,11.18-17.15a4.37,4.37,0,0,0-1.69-3.51c-1.13-.66-.28-2.2,2.53-4.64,4.64-4,8.28-11.62,7.08-14.76-.43-1.11.44-3,2-4.43s2.74-3.25,2.74-4.28c0-2.39,1.64-2.58,3.79-.43,1.8,1.8,4.64.43,4.64-2.24a6,6,0,0,1,2.11-3.59c1.37-1.14,2-3.86,1.9-7.8-.21-6.19,1.87-10.4,5.13-10.4a2.73,2.73,0,0,1,2.39,1.61c.3.89,1.7-1.4,3.09-5.06,2.08-5.48,3-6.54,5.34-5.93,3.32.87,10.46-5.8,11.77-11,.49-2,1.35-3.52,1.94-3.52s4.14-2.84,7.94-6.32,7.36-6.33,7.94-6.33,1.05-2,1.05-4.57c0-4.23.5-4.73,6.68-6.74,5.91-1.93,6.63-2.61,6.25-5.84-.67-5.76,2.06-9.56,6.89-9.56,2.39,0,4.56-.88,5-2s3-3.33,5.49-4.84c4.64-2.77,4.7-3,4.42-12.37-.22-7.73.13-9.56,1.83-9.56,2.25,0,3.44,3.11,4.34,4.67.43.73,1.05,1.57,1.89,1.48a1.77,1.77,0,0,0,1.27-1.07,10.13,10.13,0,0,1,.76-1.55c1.36-1.84,4.56-1,6.21-2.53.46-.44.82-1.08,1.45-1.19a2.84,2.84,0,0,1,.82,0c1.69.13,3.29-1.6,4.35-2.74,2.39-2.54,6.18-3.2,7.63-6.49.68-1.54,1-3.22,1.75-4.72,2.33-4.73,8-6.71,13.18-7.56a7,7,0,0,0,3.84-1.41c1.06-1,1.36-2.65,2.47-3.6a8.59,8.59,0,0,1,3.11-1.25,4.71,4.71,0,0,0,3.16-3.71c.47-2,2.05-3.7,3.58-3.94s4.32-2.6,6.26-5.27c2.65-3.65,4.27-4.67,6.6-4.14s3.2-.07,3.52-2.46c.22-1.69,1.17-3,2-2.89s2.69-.91,4.07-2.46a9.74,9.74,0,0,1,6.47-2.74c2.25,0,4-.8,4-1.82,0-2.11,5.24-5.64,6.88-4.63.6.36,2.39-.24,3.8-1.28a11.74,11.74,0,0,1,5.2-2,14.25,14.25,0,0,0,5.9-2.32c1.83-1.21,3.92-1.89,4.57-1.47s2.45-1.13,3.94-3.38,3.38-3.92,4.14-3.65,2.52-1.34,3.89-3.58c2.64-4.36,9.85-.95,9.85-.95S426,542.15,424.3,563c-.93,11.41-.5,21.09-2.81,36.9-.58,3.91-1,13.77-1.41,20.38s-2.22,20.73-4.22,32A184.55,184.55,0,0,0,413,678.69c-.15,5-.91,11.75,2.19,15.85a4.29,4.29,0,0,1,.37,3.28c-1.57,10.15-2.64,20.39-3.2,30.65-.6,10.85-4.41,20.71-4.95,31.4a158.65,158.65,0,0,1-2,17c-.56,3.48-3.49,11.64-1.6,14.94.38.65,1,1.14,1.4,1.76.94,1.36.94,3.13.88,4.78-.46,14-3.49,27.56-5.29,41.41-1.27,9.91-.14,24.38-6.36,32.8-1.87,2.54-2.94,5.49-2.44,6.75,1.15,2.91,3.57,9.08.2,6.06-2.19-2-3.17-2.09-5.42-.71a11.38,11.38,0,0,1-4.91,1.69,3.26,3.26,0,0,0-3,2.11,3.94,3.94,0,0,1-3.58,2.11c-2.65,0-9.28,4-13.5,8.06a6.89,6.89,0,0,1-4.28,1.78,10.35,10.35,0,0,0-5.2,2,13.12,13.12,0,0,1-6.19,2.11c-1.92,0-3.93,6.79-6.32,7.53s-6.34,3.77-9.72,4.74-6.94,3-7.95,4.57c-2.14,3.26-8,6.43-17.42,9.39-5.2,1.64-6.55,2.77-7.59,6.35a10.56,10.56,0,0,1-6,6.68c-2.68,1.3-4.78,2.88-4.78,3.59s-2.25,2-4.92,3-4.92,2.58-4.92,3.65c0,2.11-11.67,10.19-20.39,14.13-7.31,3.3-7.31,3.3-5.06,4.69,3.5,2.15.57,8.29-5.2,10.89a43.09,43.09,0,0,0-7.66,4.38c-1.4,1.16-2.82,1.71-3.3,1.26s.42-1.46,2.11-2.39a5.48,5.48,0,0,0,2.95-4.21c0-1.41.77-2.86,1.69-3.16,1.26-.43,1.26-.83,0-1.62-1.06-.66-2.21.28-3.1,2.53-.77,2-1.91,3.58-2.53,3.58-1.54,0-5.14,6.75-5.17,9.7,0,1.39-1.5,2.41-3.89,2.67s-3.87-.22-3.87-1.26-.35-1.37-.84-.92-.08,2.18.84,3.87c1.41,2.58,1,4-2.18,8.64-2.15,3.1-4.67,5.25-5.69,4.85-1.28-.49-2.11,1.55-2.76,6.75-1,8-7.12,7.3-11.66,7.3-3.52,0-7.16,4.5-7.16,8.86a10.33,10.33,0,0,1-3,6.39c-1.68,1.57-2.58,3.35-2.09,4.15,1.74,2.86-2.12,9.9-6.2,11.3-3.17,1.09-4.13,2.47-4.92,7.11-.55,3.24-1.54,5.77-2.25,5.77s-1.26.91-1.26,2.17a3.27,3.27,0,0,1-2.11,3,3.66,3.66,0,0,0-2.11,3.3c0,1.41-5.7,1.86-6.87,2.8a5.84,5.84,0,0,0-2.11,3.65,2.09,2.09,0,0,1-2.1,2c-1.45,0-2.11,1.4-2.11,4.5a81.81,81.81,0,0,1-1.69,12.65c-1.28,6.18-2.26,8.15-4.08,8.15-3,0-4.11,3.94-2.06,7.59,1.11,2,1,2.84-.26,3.31a2.72,2.72,0,0,0-1.75,2.38c0,1-1.9,3.63-4.15,5.84s-4.17,4.78-4.2,5.62c-.08,2.39-3.08,12.63-4.92,12.63-.91,0-4.12,4.28-4.92,6.67s-2.23,7.35-3.52,8.79c-2.37,2.67,2.11,14.89-.2,18-1.15,1.54-.75,12.38-.75,14.77a15.69,15.69,0,0,1-2.32,7.66c-2.17,3.1-2.18,3.39-.07,4.56,3,1.64,3.1,4.75.28,5.83-2.25.86-2.84,5.86-.84,7.11.63.4,2.47-.7,4.21-2.53,2.34-2.44,2.87-4.14,2.18-6.95-.55-2.25-.3-3.73.63-3.73,2.11,0,6.1,6.26,4.36,6.84-.78.26-1.4,3.14-1.4,6.51,0,5.35-.44,6.16-3.8,7-4.2,1-8.78-2.35-9.45-7-.46-3.23-3.38-4.35-4.41-1.68-.41,1.06-.06,5.76.77,10.26,1.8,9.8,1.75,8.57.95,21.65-.7,11.38,1.22,19.67,4.55,19.67,1.56,0,1.76-1.4,1-6.74-2.6-17.71-2.53-20.21.57-21,1.54-.38,2.81-1.54,2.81-2.59a7.34,7.34,0,0,1,2.25-4.14c1.68-1.69,2.74-1.84,4.21-.61,3.83,3.18,3.65,6.93-.55,11.71-3.7,4.2-4,5.41-3.59,12.86.27,4.5,1.19,8.66,2,9.17,2.16,1.33.56,5.52-2.11,5.52-3.1,0-4.43,5.78-1.69,7.32a5.76,5.76,0,0,1,2.39,4.35c.08,1.69.45,2.32.82,1.4,1.45-3.64-3.88-.23-3.88,5.11,0,5.91-1.22,7.54-4.64,6.21-2.67-1-4.38-5.34-2.39-6s.28-3-2.25-3c-1.62,0-2,1.34-1.68,5.84.35,4.92.92,5.87,3.65,6.1,5.3.43,6.49,2.68,4.82,9.15-.94,3.65-.95,5.62,0,5.62.74,0,1.74-1.26,2.1-2.67.88-3.37,7-7.6,9.15-6.29,1.11.68,1.28-.6.63-4.53-.51-3-1.32-9.14-1.83-13.64s5.75-9.75,5.17-10.1-.72-1.9-.32-3.44c.95-3.63,5.55-3.24,4.91.42-.25,1.4.87,4.78,2.51,7.59,2.38,4.08-4.46,7.17-5.59,10.45a26.55,26.55,0,0,0-.63,10c.6,4.64.11,7-2.32,11.18s-2.77,5.68-1.48,7.31a7.46,7.46,0,0,1,1.41,4.56,17.58,17.58,0,0,0,.07,3.94,33.93,33.93,0,0,1,.06,5.62c-.26,4.92,2.5,13.14,2.83,8.44a45.51,45.51,0,0,1,.83-5.63c.35-1.55,1-5.2,1.48-8.15,1.38-8.79,5.14-5.9,6.57,5.06a20.3,20.3,0,0,1-1.94,12.93c-3.52,7.73-3.52,8.1.15,10.36,3.19,2,6.88.19,6.88-3.33,0-1.54,4.17-4.3,4.89-3.23,5.92,8.85,9.31,21.07,6.36,22.89-2.16,1.34-1.69,5.93.7,6.83,1.13.41,2.11,2.26,2.11,3.94,0,2.39.41,2.76,1.69,1.48,2.91-2.91,6.64-1.83,7.74,2.25a45.91,45.91,0,0,1,1.65,7.31,1.72,1.72,0,0,0,1.71,1.4c2.81,0,5.7,4.14,4.82,6.89-.82,2.53,4.12,12.79,6.15,12.79a5.24,5.24,0,0,0,2.53-1.54c2.18-2.19,9.45,7.59,8.46,11.38-.48,1.83,0,2.82,1.24,2.82,1.11,0,2,1.19,2,2.74,0,1.82.71,2.48,2.11,2,2.1-.77,7.73,3.18,7.73,5.43,0,.61,1.27,2.39,2.81,3.93s2.44,3.73,2,4.85c-.53,1.29.63,2.79,3.17,4.08,2.19,1.12,6.53,5.27,9.6,9.2,6.81,8.72,8.89,9.68,10.66,4.92,2.07-5.55,6.09-3.93,6.64,2.68.41,4.92.69,5.2,5.07,5.2,5.06,0,13.59,3.67,15.35,6.6.81,1.35,1.8,1.46,3.77.42a12.65,12.65,0,0,1,4.08-1.4c1.94,0,6,9.7,4.89,11.67-.75,1.32-.54,1.3,1-.11,3.15-2.88,6.35-2,10.68,2.92,3.34,3.79,4.52,4.37,6.47,3.16s3.48-.28,8.5,5.2c3.35,3.66,7.14,6.68,8.37,6.68s5.34,1.64,9,3.58c4.78,2.54,8.08,3.38,11.32,2.88,2.53-.39,4.91-.1,5.34.64s2.88,1.33,5.41,1.33a10.4,10.4,0,0,1,7.88,3.45c2.8,3,4.63,3.49,13.91,3.86,9.56.38,10.68.72,10.68,3.23,0,1.83.74,2.62,2.11,2.25a29.82,29.82,0,0,1,6.68-.35c2.53.12,4.57-.41,4.57-1.19,0-3,4.37-3,6.91.14,2.21,2.69,3.21,3,6,1.71,4.67-2.1,21.37.19,27.41,3.76a20.65,20.65,0,0,0,8.65,2.82c2.1,0,4.44.51,5.13,1.11,1.47,1.3,16.72,5.09,19.39,4.82.93-.09,9-.55,17.86-1l22.56-1.19c3.51-.2,7.31-1,8.43-1.69s5.55-1.37,9.77-1.41a65.48,65.48,0,0,0,15-2.25c4.22-1.25,8.08-1.67,9.14-1,3.3,2.15,6.42,1.2,10.8-3.3l4.38-4.5,3,3.58c2.55,3.1,3.42,3.38,6.33,2,1.82-.84,3.72-2.67,4.14-4,.56-1.76,9.32-3.78,12.83-3.78a20.87,20.87,0,0,0,7.52-1.33c1.79-.92,4.92-.74,10,.56,6.89,1.77,7.54,1.71,9.7-.92,1.75-2.11,4.22-2.88,10-3.09,4.22-.15,8.93-.78,10.47-1.4s4.57-1.77,6.68-2.53,3.87-1.92,3.87-2.53,2-1.92,4.35-2.89c3.66-1.47,4.55-1.44,5.56.22s1.64,1.33,3.44-1.2c1.64-2.31,3.65-3.18,7.45-3.23,4.78-.07,5-.23,2.67-2-1.55-1.16-2-2.25-1.12-2.81s2.19.35,3.15,1.9c2.58,4.15,4.85,3.65,10.23-2.25,3.54-3.9,5.87-5.14,10.09-5.4,9.84-.6,19.78-5.17,22.83-10.49,2.63-4.6,5.57-5.69,12.31-4.58,3.09.51,4.78.22,4.78-.83a1.77,1.77,0,0,1,1.83-1.62c2.2,0,7.17-5.2,8.45-8.85,1-2.76,7-5.48,9.82-4.43,1.93.72,8-6.11,9.81-11a4.26,4.26,0,0,1,3.9-2.39c2.54,0,2.89.56,2.18,3.51s-.33,3.51,1.75,3.51c1.46,0,3.32-1.54,4.22-3.51a10.92,10.92,0,0,1,5.13-4.92c2-.79,3.52-2,3.52-2.81,0-4.78,12.94-12.92,15.88-10,2.33,2.33,6.61,2,6.61-.56a2.25,2.25,0,0,1,2.46-2.11c1.37,0,3.7-1.9,5.27-4.29s4.15-4.63,5.83-5.06,3-1.49,2.88-2.39a37.4,37.4,0,0,1,1-6.89c.9-4.21,1.74-5.27,4.21-5.27,1.68,0,6.4-1.6,10.33-3.51s8.21-3.15,9.35-2.7c2.44.93,10.69-4.47,10.69-7,0-1,1.82-3.27,4.21-5.34s4.22-3.29,4.22-2.81,2.25-1.35,4.92-3.94,4.92-5.81,4.92-7,2-3,4.85-4c4.36-1.58,5-2.53,6.39-9.42.86-4.22,2.15-7.66,2.89-7.66s1.33-.85,1.33-2,2.74-3.26,6.12-4.85,6.49-3.86,7-5.06a3.82,3.82,0,0,1,3.38-2.18c1.4,0,7-4.37,12.65-9.84s10.93-9.84,12-9.84c2.22,0,17,1.31,24.71-8.11,3.54-4.36,5.48-8.16,5.48-10.75s1.63-5.69,4.9-9.07c4.89-5.06,6.16-7.87,3.54-7.87-.8,0-1.41,1-1.41,2.25,0,2.9-3.33,1.83-3.92-1.27-.24-1.22.62-4.49,1.88-7.16,1.39-3,1.93-6.13,1.34-8-.9-2.75-.64-2.94,3-2.11s9.62,5.27,11.72,1.19a54.81,54.81,0,0,0,3.3-7.87c.71-2.53,1.31-2.9,2.74-1.69,1.27,1.07,2.11,1.12,2.74.14.51-.78-.77-1.84-2.88-2.39-2.67-.69-4.3-.29-5.48,1.34a5.72,5.72,0,0,1-3.8,2.32c-3.37,0-4,1.74-1.68,4.36s-5.18.36-8-2c-1.19-1-2.39-.88-4.07.36-3,2.17-3.25,4.47-.71,5.52s-5.62,8-8.15,7c-1.83-.7-1.85-1.3-.14-4.53a77.75,77.75,0,0,1,6.33-9.21c2.34-3,9.67-1,9.67-1.41s1.76-1.83,4-3.09q4-2.25,3.87-5.63c-.11-2.53.68-3.49,3.16-3.86a5.14,5.14,0,0,0,4-3.31c.77-2.94,4.2-2.67,3.52.29-.46,2,2.17,5.62,4,5.62.66,0,1.26-1.27,1.26-2.67a6.74,6.74,0,0,1,2.18-4.43c1.27-1,1.94-2.41,1.62-3.3a6.6,6.6,0,0,1,.77-4.15c1-1.92.54-3.44-1.72-5.83-3.86-4.08-3.27-8,1.37-9.14,2.53-.61,3.51-1.81,3.51-4.29,0-2-.72-3.3-1.68-3.11-3,.59-1.91-1.6,4.23-8.34,4.35-4.78,7.26-6.71,11.16-7.38,3.09-.54,5.27-.34,5.27.49,0,1.89,7.41-.42,8.11-2.53.43-1.31-1-1.71-5.09-1.41-3.09.23-6.08,0-6.54-.4-1.66-1.63,7.88-4.3,12.66-3.54s6.51-.76,3-2.85c-2.39-1.4-4.06-9.28-2.34-11.06a10.62,10.62,0,0,0,1.71-4.78c.37-2.67,1.33-3.51,4-3.51,4.19,0,8.82-3.1,11.14-7.45.9-1.69,2.55-3.1,3.62-3.1s1.88-1.12,1.76-2.53c-.25-3.09,3.89-9.57,6.82-10.67,1.82-.69,1.93-1.23.56-2.89s-2.32-1.56-6.26,1.41c-2.53,1.9-5,3.44-5.55,3.44-1.57,0-.91-9.14.94-13.07,2-4.36,3.44-4.7,6.79-1.63,3,2.69,5.48,1.63,5.48-2.29,0-4.38,6.57-1,7.05-6.14.2-2.09.13-4.78,2.07-5.6.08-1.75-2-2.78-3.7-3.06s-3.78-.44-4.72-1.92c-1.32-2.07.72-4.73,2.93-5.79s4.88-1.56,6.35-3.53c1.93-2.58-3.91-12.14-.82-13.08.89-.27,1.93-.13,2.67-.69a3.35,3.35,0,0,0,1-1.87c1.52-5.17,7.44-10.89,9-16.06a2.78,2.78,0,0,0,.12-1.77c-.43-1.08-1.88-1.16-2.88-1.74-2.14-1.23-1.66-4.79.38-6.16s4.8-1,7.1-.13c1.94.76,3.8,1.88,5.88,2s4.48-1.25,4.46-3.33c-1.82-.59-4,1.69-5.53.61a6.13,6.13,0,0,1-1.15-1.47c-1.57-2-4.64-1.52-7.17-1.78a1,1,0,0,1-1-1.37,9.81,9.81,0,0,1,11.72-6.8c1.79-8.24,10.55-23.63,7.49-31.7-1-2.52-1.83-6.16.63-7.24,1.17-.52,2.55-.07,3.76-.46,2.19-.72,2.61-3.55,3.15-5.79s2.76-4.77,4.71-3.54c-3.06-4.31-6.18-10.13-3.19-14.5a6.1,6.1,0,0,0,1.46-2.6,4.67,4.67,0,0,0-.7-2.4c-1.36-2.94-8.38-15.47-7.84-18.66a7.08,7.08,0,0,1,2-4.25,3.4,3.4,0,0,1,4.39-.2c1.53,1.45,1.46,4.74,3.56,4.86,1.41.09,2.3-1.69,2-3.07a10.31,10.31,0,0,0-2.25-3.57,14.52,14.52,0,0,1,.26-17.39c.77-1,2.34-1.76,3-.77a2.18,2.18,0,0,1,.21,1.43l-.54,6.05c1.94.45,3.91-1.18,4.41-3.11a7.92,7.92,0,0,0-1.12-5.71,16.2,16.2,0,0,0-7.92-7,7,7,0,0,1-2.53-1.36c-1.88-2,.07-5.54,2.73-6.06s5.27,1,7.44,2.59c1.1-5.18,11.66-10.42,10-15.45a2.41,2.41,0,0,0-1.15-1.6,2.44,2.44,0,0,0-2.21.69c-2.23,1.71-9.75,4.7-11.56,6.84-1.14-7.73,12.38-17,19.82-19.43-3.67-1.17-5.28-6.38-2.92-9.42.78-1,1.89-1.78,2.35-3,.87-2.23-1.92-3.63-3.64-3.93-2.26-.38-5-.36-6.24-2.28-.86-1.32-.61-3-.5-4.59a22.42,22.42,0,0,0-8.87-19.25c4.51-.54,10.1-2.06,10.83-6.55a1.64,1.64,0,0,0-.27-1.4c-.57-.61-1.56-.25-2.37-.07-4.26,1-5.46-4.67-7.1-8.72-.86-2.13-1.73-4.49-1-6.66s2.11-2.64,3.51-.82c-1.23-4.56-.57-9.9-1.8-14.46a3.58,3.58,0,0,0-1-1.91c-1-.84-2.51-.43-3.75-.81-2.44-.76-7.2-3.54-6.64-6s1.53-5.29.17-7.46a9.6,9.6,0,0,1-1.27-1.93c-.49-1.49.66-3,.95-4.52.79-4.18-7.56-7.07-8-11.29-.09-1,.09-2.11-.42-3-1.48-2.51-6.34-.22-7.88-2.69-1.15-1.84.91-4,1.29-6.14.93-5.08-7.6-8.62-6-13.54a8.83,8.83,0,0,0,.77-2.29,4.11,4.11,0,0,0-.85-2.24c-5.53-8.76-11.77-25.73-18.85-37.07-34.48-55.2-74.08-93.93-138.46-120.62-44.13-18.3-66.07-31.19-178.92-37.92-21-1.25-38.33.5-42.71,0-7.23-.82,85.81-67.24,120.25-165.87,4.64-13.27,8.2-32.8,8.2-54.35,0-19.22-11.45-70.78-16.13-72.3-.61-.2-3.17-4.85-3.17-6.25s-1.28-3.49-2.86-6.44a46.74,46.74,0,0,0-8.46-12,71.82,71.82,0,0,1-6-9.14A91.56,91.56,0,0,0,792.3,224c-4.24-4.36-7.66-8.4-7.66-9.06s-1.12-1.2-2.53-1.2-5.06-3.09-8.17-6.89c-7.67-9.36-24.72-23.6-35.55-29.68a145.3,145.3,0,0,1-13.77-8.76c-2.81-2.15-5.66-3.87-6.4-3.87s-5-2.2-9.49-4.92-9.57-4.92-11.31-4.92a6.69,6.69,0,0,1-4.72-2.11c-2.85-3.84-17.7-8.25-28.1-8.34-9.28-.08-9.9-.29-10.83-3.6-.63-2.25-1-2.63-1.12-1.06-.11,1.83-1.27,2.46-4.5,2.46-3.65,0-4.24-.44-3.65-2.74.43-1.69-.11-3-1.41-3.53-3.37-1.27-4.64-.9-4.64,1.35,0,2.67-6.53,2.79-8.05.14-1.32-2.3-12.19-3.37-17.11-1.67-2,.67-3.84.51-4.78-.44-2.36-2.35-9.63-1.82-11.6.85-1.61,2.19-2.39,2.21-9.55.21-4.36-1.22-8.18-1.81-8.65-1.34-1.06,1.07-18.41.72-20.24-.4C557.67,134,556.46,134.63,555.66,136ZM677.46,244.1c5.25.17,21.28,2.49,23.2,4.23s3.63,3.76,5.9,5c2.07,1.13,4.45,1.51,6.7,2.24,9.26,3,15.5,11.47,23.57,16.88,4.93,3.3,10.55,5.45,15.56,8.64,7.92,5,10.54,13.34,15.67,20.75,10.25,14.8,11.93,29.58,2.54,75.27-.84,4.08-4,11.1-7.37,16.3A167.94,167.94,0,0,0,754.72,408c-1.4,3-3.18,6.46-3.86,7.59a53.67,53.67,0,0,0-2.67,5.41c-.78,1.82-4.26,6.19-7.74,9.7-12.24,12.39-20.72,27.38-34,39.06-2.6,2.28-5.33,4.62-6.79,7.76-1.06,2.29-1.9,5.37-4.4,5.72-1,.14-2-.24-3-.13-4.53.51-3,8.61-6.86,11-2.14,1.3-4.88.23-7.13-.85-.68,1.12,1.06,2.1,1.67,3.26.93,1.78-1.07,3.67-2.85,4.6-5.93,3.11-9.88,16.56-18.14,16.56-1,0-2.22,2.11-2.72,4.78-1.24,6.6-16.69,18.69-23,18-2.67-.28-3.16.21-2.81,2.82.32,2.36-.49,3.51-3.16,4.5-2,.75-6.26,3.88-9.63,7.09a379.83,379.83,0,0,1-31.55,26.35c-5.46,4.16-13.06,4.37-18.56,8.48-3.93,2.94-10.6,6.14-12.65,10.77-2.64,6-4.41-1.41-5.23-4.14-1-3.19-3.77-6.89-3.33-10.35s4-5.39,5-8.72c.74-2.49-.17-5.06,0-7.6.25-3.07,1.45-6,2.07-9,1.32-6.31-.52-12-.6-18.25-.06-5.41,1.21-11.38,2.14-16.71,3-17,3.68-33.75,4.55-51,1.33-26.31,3.53-52.27,3.45-78.64-.07-25.82-1-51.62-1.56-77.46-.25-11.06.72-21.75,1.33-32.74.41-7.29-4.15-29.28-.49-31.89,1.73-1.23,26.24-5.32,27.93-5.69,2.32-.5,8.21-1.22,10.54-1.73,8.9-1.91,16.42-4,25.39-2.46,3,.53,5.68.18,8.7.27,7.72.23,15.28-4.18,22.53-1.5C659.28,243.67,675.72,244.05,677.46,244.1ZM825.4,654.24a6,6,0,0,1-2.1,3.71c-3.5,2.88-2.68,7,1.4,7,2.9,0,3.52-.63,3.52-3.59s.55-3.51,3.16-3.16c2.34.31,3.16,1.41,3.16,4.22,0,4.78,1.26,5.94,3.51,3.23s5.11-2.74,6.1-.14c.91,2.39,10.66,4.09,12.88,2.25,1.18-1,2.45-.56,4.22,1.41,1.39,1.54,3.13,2.81,3.86,2.81s3,1.28,5.06,2.95c3.22,2.54,4.85,2.82,11.88,2,7.73-.87,8.36-.69,12.16,3.37,2.23,2.39,5.16,4.32,6.61,4.36a16.28,16.28,0,0,1,6.11,2,17,17,0,0,0,6.68,2,6.93,6.93,0,0,1,4.92,2.89c1,1.54,2.86,2.81,4.22,2.81s2.46.66,2.46,1.54,1.54,1.2,3.93.67c4.78-1.07,8,2,6.65,6.22-.74,2.36-.32,2.81,2.63,2.81,2,0,3.92.65,4.43,1.48a10.85,10.85,0,0,0,4.28,2.81c2.11.83,3.38,2.42,3.38,4.22,0,2.25.62,2.69,2.81,2,1.83-.55,3.08-.13,3.58,1.19a5.73,5.73,0,0,0,3.45,2.74,2.61,2.61,0,0,1,2,3.37c-1.2,5.21,9.06,13.36,12.85,10.21,1.57-1.3,2.39-1.28,4.07.11,2.53,2.1,2.75,5.12.43,5.9-1.15.38-1.1,1.36.18,3.75,1.79,3.34,13.23,18.69,16.66,22.35A6.29,6.29,0,0,1,998.3,769c0,.71,1,1.33,2.11,1.33s2.87,1.76,3.79,3.87a44,44,0,0,0,4.22,7.24c1.37,1.83,2.53,4.56,2.53,6s1.92,6.12,4.22,10.33,4.22,8.37,4.22,9.14,1.63,4.78,3.6,8.86c4.41,9.12,8,19.68,11.16,32.61,1.33,5.48,2.86,10.46,3.46,11.24,1.43,1.87,5.7,14,5.7,34.52,0,17-3.28,38.64-7,62.54-.56,3.68-2.39,7.83-2.66,9.7a35.3,35.3,0,0,1-2.51,7.73c-2.11,4.57-2.49,5.49-8.7,20.53-2.08,5.06-6.56,16.32-10.77,25.74s-7.59,17.58-7.59,18.28-1.61,3.65-3.51,6.46-3.52,6-3.52,6.89-1.71,3.94-3.86,6.75-3.67,5.62-3.44,6.32c.83,2.42-1.41,6.39-4.08,7.25-1.69.54-2.53,1.69-2.11,2.87s.07,2-.77,2-1.14,1.34-.71,3c.57,2.22-.7,4.71-4.77,9.35-3.09,3.52-5.56,7.48-5.56,8.93s-1.61,3.64-3.58,4.92c-2.53,1.63-3.13,2.77-2,3.86,2.24,2.24,1.83,3.21-3.51,8.38s-5.93,6.52-2.82,6.52c1.13,0,2.11-.65,2.11-1.4a1.33,1.33,0,0,1,1.41-1.41c2.2,0,1.54,3.23-1.37,6.75-1.4,1.68-3.91,3.09-5.52,3.09s-3,.63-3,1.48-4.87-.56-7.83,2.2c-4.92,4.59-8.38.43-6,2.2s2.36,2.18-1,7.66c-2,3.24-3.58,6.26-3.58,6.89,0,2.39-6.53,7.41-8.58,6.6-1.17-.47-3.64.85-5.55,3-2.3,2.53-2.88,4-1.76,4.39,3.4,1.21-.84,6.39-4.64,5.67-4.35-.83-7.72,1.24-4.92,3,1.71,1.08,1.66,1.74-.42,5-1.35,2.11-3.24,4.06-4.36,4.5s-3.26,3-4.85,5.62c-2.17,3.66-3.54,4.65-5.55,4-3.46-1.08-15.51,11.09-15.56,15.73,0,2.37-1.73,4.06-6.37,6.33-3.51,1.72-6.32,3.59-6.32,4.22,0,1.3-8.86,9.55-10.26,9.55-1.83,0-10.83,7.6-10.83,9.14s-11,11.36-17.15,15.38c-2.39,1.56-4.88,2.11-6.74,1.49s-4.36-.06-6.47,1.33c-4.08,2.68-4.34,5-.56,5,1.54,0,2.81.57,2.81,1.27,0,1.76-6.89,7.17-9.14,7.17-2.85,0-9.86,4.07-13.29,7.73-1.84,2-4.1,3.51-5.12,3.51-2.39,0-2.57,1.65-.42,3.8,1.8,1.8.42,4.64-2.25,4.64a3.13,3.13,0,0,0-2.53,1.89c-.4,1.07-3.23,2.24-6.47,2.68-3.54.47-8.57,2.85-13.07,6.17-9,6.65-13.24,8.94-16.59,8.94-1.82,0-2.42.66-1.9,2.1.42,1.13.15,2.11-.56,2.11s-2.06,1.62-2.88,3.45a8.78,8.78,0,0,1-5.13,4.35c-2,.51-3.58,1.43-3.58,2s-1.48,1.49-3.17,1.9-6.67,3.07-10.89,5.83-9.49,5.42-11.6,5.84-3.86,1.35-3.86,2-.78,1.26-1.62,1.26-5.41,1.78-10.19,4c-14.2,6.67-18.21,8.29-23.33,9.39-4.92,1.06-14.42,6.36-16,8.93s-18.83,10.31-20.53,9.25c-.82-.5-2.67,0-3.94,1s-5.2,2.78-8.71,3.8-8.39,2.7-11,3.79-6.14,1.59-7.94,1.13-3.71-.16-4.22.7-2.53,1.55-4.35,1.55-3.45.62-3.45,1.33-3.37,2-7.59,2.88c-5.34,1.09-7.78,2.32-8.22,4.15-.51,2.07-2.6,2.77-10.33,3.44-5.34.47-11.28,1-13.22,1.2a19.61,19.61,0,0,0-6.6,2.11,16,16,0,0,1-7,1.61,71.4,71.4,0,0,0-12.37,1.62,138.58,138.58,0,0,1-21.09,2c-7,.12-15.08,1-18.13,2.08-5.63,1.92-27.55,1.22-39.5-1.26-3.11-.65-2.62,2.74-7.68,2.2-8.43-.91-8.95,2.32-19.07,1-11.53-1.54-24.18-2.6-30.5-4.6-3.29-1-9.05-4.22-14.54-5.91-11.44-3.54-28.7-11.73-37.48-16-8.59-4.24-14.76-7.38-17.92-8.73-9.79-4.17-10.39-5.18-18.64-13.72-9-9.29-21.81-30.62-26.13-44.68-1.43-4.64-3.27-9.29-4.08-10.33s-1.6-5.41-1.76-9.77c-.36-9.84-2.62-26-3.94-28.11-.54-.85-1.29-7-1.68-13.57-.63-10.85-.28-13.21,3.66-24.32,2.42-6.83-.57-12.48,1.39-19.51,3.58-12.86,10.47-27.13,19.88-41.18a117.6,117.6,0,0,0,8.1-14.2c9.77-21.9,35.13-53.28,62.54-77.39,4.85-4.27,14.9-13.81,22.21-21.08,11.38-11.32,13.5-12.88,14.34-10.54.53,1.49.4,5-.28,7.66-1.88,7.33-2.62,57.07-1,66.07.77,4.21,1.6,10.67,1.83,14.19.52,7.88,5.09,17.5,11.89,25,6.47,7.17,11,8.35,18.05,4.72,2.95-1.52,6.91-3.38,8.85-4.15s9.14-4.22,16.17-7.73,14.84-6.81,17.57-7.4c5.75-1.26,16.87-7.29,24.46-13.27,2.95-2.33,7.48-4.62,10.12-5.12,5.65-1.08,6.48-2.19,7.75-10.48.53-3.46,1.95-12.37,3.14-19.68s2.6-18.13,3.1-23.9,1.21-12.13,1.58-14c3-15.75,3.19-42.43.29-46-1-1.18-.45-3,1.71-5.9,2.85-3.88,3-5.34,2.33-18.28-.78-14.33,0-17,4.7-17,1.34,0,3.38-1.55,4.64-3.52,2-3.08,3.3-3.51,10.75-3.51,6.75,0,8.69-.53,9.42-2.53,1-2.67,4.29-5.2,6.82-5.2.77,0,3.23-1.45,5.48-3.24,3-2.34,5.06-3,7.66-2.25a18,18,0,0,0,5,.78c.76-.12,3.79-.41,6.61-.63s5.65-.88,6.18-1.41c1.82-1.82,4.78-1.13,4.78,1.12a2.06,2.06,0,0,1-1.9,2.11c-1,0-3,1.27-4.43,2.81-2.41,2.68-2.39,2.82.43,2.82,1.68,0,3.31-.61,3.79-1.41s2-1.41,3.59-1.41c2.1,0,2.74-1,2.74-4.21s.64-4.22,2.74-4.22a4.81,4.81,0,0,1,3.93,2.11c1,1.81,1.9,1.73,6.12-.51,7.45-4,12.51-4.9,12.51-2.3a2.16,2.16,0,0,0,2.11,2.11c1.12,0,2.11-.66,2.11-1.41,0-1.69,6.51-1.93,7.52-.28,1.3,2.11,8.92.82,15.25-2.58,1.82-1,2.76-.77,3.37.75.54,1.34,2,1.83,3.94,1.34,3.37-.85,8.8,3.81,7.28,6.25-.6,1-.11,1.21,1.29.63,1.57-.63,2-1.89,1.49-4.14-.85-3.62-.36-4.06,6.1-5.44,4.36-.94,4.71-.77,4,1.92-1.06,4.08.84,4.77,4.29,1.55,3.93-3.66,11.51-3.66,14.65,0,2.9,3.37,5.08,3.62,6.21.7,1.32-3.38,4.63-2.53,7.11,1.83,2.15,3.76,2.74,3.94,13.42,4.08s11.36.33,15.29,4.64c4.36,4.77,5.08,7.63,2.35,9.31-1.81,1.12,2,3.05,6.33,3.23,2.09.09,2.27-.95,1.47-8.26-.9-8.29-.87-8.38,3.8-11.17,3.51-2.1,5.17-2.42,6.54-1.27s2.53.91,4.63-1c3.55-3.21,3.52-4.55-.14-5.68-2.1-.65-2.75-1.69-2.24-3.65.57-2.25.34-2.45-1.27-1.1-2.06,1.71-3.65,1.53-18.84-2.21a90.33,90.33,0,0,0-12.65-2.36c-2.84-.1-7.45-2.44-12.51-6.34-.31-.24.62-1.76,2.11-3.45,2.61-2.95,2.61-3-.14-1.92C712,921,710.42,920.85,700,917.5c-9.14-3-11.08-3.19-12.49-1.53-2.46,2.92-7.79,2.25-10.09-1.27-1.74-2.67-2.33-2.83-4.27-1.22-3.17,2.63-15-1.73-15-5.52,0-1.41-.67-2.67-1.41-2.67s-1.4-1.13-1.4-2.39c0-1.83-.4-2-1.69-.71-2,2-8.57,2-21.08-.21-11.25-2-14.54-4.27-10.4-7.29a11.19,11.19,0,0,1,5.48-2.05c4.57,0,1-2.81-4.78-3.74-5.06-.81-5.58-1.27-5.2-4.56.55-4.78,6.74-6.32,6.74-1.68,0,2.44.85,3,4.92,3s4.92-.54,4.92-2.67a4,4,0,0,1,2.11-3.45,3.38,3.38,0,0,0,2.11-3c0-3.65-4.3-9.14-7.17-9.14-3.61,0-3.51-2.38.14-3.55a9,9,0,0,0,4.5-4.32c1.35-3,1.83-3.12,3.8-1.33,1.26,1.14,2.86,1.92,3.65,1.77,2.23-.42,2.09,18.54-.15,20.79a6.93,6.93,0,0,0-2,4.21c0,1.67.85,2,3.24,1.28,7-2.1,10.77-9,5.9-10.87-1.33-.51-2.11-2.7-2.11-5.94,0-5.06.06-5.12,4.64-4.18,6.61,1.36,22.07,1.58,22.07.32,0-.53,1-1,2.11-1,2.81,0,4.49,4.18,2.25,5.58s4.35,3.23,7.45,2a4.83,4.83,0,0,1,4.35.82q2.12,1.68,3.87.35a7.76,7.76,0,0,1,3.86-1.34,21.72,21.72,0,0,0,5.21-1c3.58-1.15,6.74,3.24,5.56,7.74-.64,2.42.48,3.3,3.57,2.82.54-.08,1.67,1.12,2.5,2.66,1.75,3.23,9.21,3.84,10.37.85.43-1.12,2.17-2.17,4-2.43,5.43-.77,4.92-9.53-.56-9.64-.62,0-2.14,2.51-3.38,5.6s-2.81,5.27-3.51,4.84c-1.76-1.09-1.55-9.62.28-11.45,1-1-.49-2-4.43-3.3-3.65-1.19-6.41-3.13-7.38-5.2-1.18-2.53-2.2-3.08-4.35-2.36-4.78,1.62-10.74,1.16-12.94-1-1.88-1.84-1.77-2.49,1-6l3.09-3.94-3.3,1.06c-1.83.58-5.13,2.86-7.38,5.07-4.78,4.72-7.05,5-10.83,1.18-2.95-3-3.86-8.43-1.4-8.43.77,0,1.4-1.26,1.4-2.81s-.63-2.81-1.4-2.81a1.69,1.69,0,0,0-1.41,1.83c0,1-1.54,3.17-3.51,4.89q-5.34,4.67-14.62,2.16c-2.85-.77-3.14-1.43-2.46-5.65.55-3.37.28-4.61-.91-4.22-1,.32-1.87,2.18-2.11,4.29-.38,3.34-1,3.73-5.91,3.73-6.32,0-8.33-2-4.21-4.25,1.54-.83,2.81-2,2.81-2.5,0-1.56-7.17-4.5-11-4.5-3.37,0-3.41.11-1,2.74s2.34,3,.21,6.26a13.57,13.57,0,0,0-2.32,5.83c0,1.75-.77,2.11-3.16,1.48a36.42,36.42,0,0,0-7.73-.85c-2.53,0-4.57-.62-4.57-1.4,0-2,6.89-8.44,9-8.44.85,0,2.33-1.26,3.3-2.81,1.49-2.39,1.45-2.81-.28-2.81a3.62,3.62,0,0,0-2.88,1.41,3.86,3.86,0,0,1-3.1,1.4,5.53,5.53,0,0,0-3.86,2.18c-1.19,1.6-3.45,2.07-8.51,1.76-6.46-.4-6.74-.57-4.49-2.8,5.14-5.12.42-5.67-5.07-.59-2.65,2.46-4.91,3.27-8.29,3a32.71,32.71,0,0,1-5.34-.78,45.09,45.09,0,0,0-7-.49c-5.48-.12-6.28-.51-6-2.95.33-2.62.2-2.6-1.9.35-1.2,1.69-3.36,3.16-4.64,3.16a6.58,6.58,0,0,0-3.93,1.55c-1.12,1.12-2.46,1-4.85-.28-1.9-1.05-6.75-1.68-11.39-1.48l-8.08.35-.21-6c-.28-8.29,0-11.23,1.55-14.48,2.69-5.75,3.11-12.37,2.82-45-.13-13.92.45-28.15,1.29-31.63,1.88-7.87,2-17,.23-21.64-.95-2.53-.85-4.05.36-5.42.89-1-3.17-10.16-2.35-11.56,1.7-2.9-.58-12.57,7.86-11.25,4.92.77,5.45.51,6.81-3.31,1.28-3.59-4-13.58,0-13.33,3,.17,1.45.71,3.22-.89,3.66-3.32,12.41-8.55,14.63-3.77l1.82,3.93,2.81-3.58c1.55-2-1.26,2.59-.22,2.59a3.18,3.18,0,0,0,2.67-2c.44-1.14,3-3,5.77-4.14,3.51-1.49,5-3,5-5.13,0-1.69,3.73,1.13,4.32,1.45s2.74,1.39,4.85,2.44c4.92,2.43,19.24,1.56,19.92-3.08.38-2.62,1.53-3.31,6-3.66a12.53,12.53,0,0,0,8.85-4c2.57-2.79,7,2.18,10,2.9,7,1.72,9.42,1.55,9.42-.65,0-1.42,1.69-2.25,5.2-2.56,6-.52,6.51.36,2.11,4-1.69,1.42-2.36,2.63-1.48,2.67a5.3,5.3,0,0,0,3.31-2c.93-1.17,3.72-2.11,6.25-2.11,3.52,0,4.93-.78,6.12-3.37q1.55-3.37,4.07-2.74c1.5.37,4.08-.83,6.33-3,3.79-3.59,8.69-4.53,12.23-2.35,1.71,1.05,1.76,1.71.28,3.54-1.62,2-1.41,2.25,1.83,2.25,2,0,3.65-.65,3.65-1.41,0-2.53,8.53-3.74,11-3.08,1.46.38,3.8-1.06,6-3.73,4-4.78,8.77-5.92,7.62-1.83-1.65,5.91-1.61,6.61.4,6.61,1.23,0,2.11-1.41,2.11-3.37,0-4.22,4.13-7.12,6.61-4.64,1.3,1.3,1.1,2.32-.85,4.43-1.42,1.54-2.1,3.41-1.56,4.28,1.32,2.1,3.53.42,3.53-2.67s2.25-5,7.59-6.35c3.32-.81,4.7-.11,8.79,4.38,3.44,3.8,5.17,4.82,6,3.52.91-1.47,7.17,6.92,20,3.52,1.27-.34,1.92.28,1.63,1.55-1.43,6.32-1.45,8.43-.08,8.43.78,0,1.8-1.12,2.3-2.53,2.27-6.47,8.8-9.91,8.8-4.64,0,3.66,2.93,5.21,4.51,2.39,1.74-3.09,10.39-3.09,11.58,0,.83,2.15,1.27,2.06,4.37-.84,1.82-1.72,3.44-4.36,3.44-5.63,0-3.19,1.27-4.21,5.2-4.21,1.83,0,3.23.85,3.23,2ZM571.66,847.65a2.64,2.64,0,0,1,.09,2.68c-1.15,1.87-6.39.14-6.39-2.11s5-2.7,6.3-.57Zm20.4,2.82a1.4,1.4,0,0,1-1.47,1.4c-.85,0-1.12-.6-.63-1.4s1.09-1.41,1.47-1.41.63.56.63,1.41ZM624,862.41c1.24,3.23,0,3.79-5.88,2.69-4.92-.92-5.13-1.15-2.67-2.94,3.51-2.56,7.52-2.44,8.55.25Zm93,12.51c.5,2.51-.9,2.87-3.85,1-2.15-1.36-.7-4.74,1.69-3.94a4.29,4.29,0,0,1,2.16,2.95Zm-320.83,3.24c-1.38,1.39-2.56-.71-1.42-2.53.88-1.41,1.27-1.42,1.71-.07a2.83,2.83,0,0,1-.29,2.6Zm207.2,2.53a2.11,2.11,0,1,1-2.11-2.11,2.16,2.16,0,0,1,2.11,2.11Zm9.7-.8c2.55,1.6,1.4,6.27-1.69,6.85-3.65.7-5.69-1.63-4.56-5.21,1-3.14,3-3.67,6.25-1.64Zm517.53,15.18c-1,3.66-4.64,5-4.64,1.69,0-3,1.18-4.36,3.65-4.36,1,0,1.4,1.13,1,2.67Zm3,8.44c.42.67-.19,1.62-1.32,2s-2.11,0-2.11-1.19c0-2.25,2.21-2.79,3.43-.84Zm-190.83,245A1.54,1.54,0,0,1,940,1147a1.54,1.54,0,0,1,2.67,1.55Zm78.74,51.27a2.1,2.1,0,0,1-2,2.11c-2.67,0-4-2.39-1.83-3.26,3-1.19,3.8-.93,3.8,1.15Zm-145,18.47c1.48,1.45-3.23,6.09-6.19,6.09s-3.33-2.13-.87-4.92c1.85-2.11,5.5-2.71,7.06-1.17Zm54.4,36.17a4,4,0,0,1-1.55,3.06c-1.94,1.19-4.59-1.65-3.38-3.62,1.38-2.23,4.93-1.83,4.93.56Zm-103.32,12.09a2.72,2.72,0,0,1-2.18,1.41,1.29,1.29,0,0,1-1.33-1.41c0-.81.91-1.4,2.18-1.4s1.82.59,1.33,1.4ZM869.37,1281a5.78,5.78,0,0,1-.88,4.15c-1.1,1.82-1,2.89.21,4.14,1.85,1.85,4.83-1,7.4-7,.72-1.69,2.34-3.1,3.56-3.1,2.49,0,1.47,2.39-5.22,12.23-3,4.36-5.18,6-9.12,6.7-6.6,1.19-10.4,3.57-10.4,6.52,0,1.26-1.54,2.93-3.51,3.79-2.25,1-3.21,2.33-2.67,3.73.61,1.59-.14,2.17-2.81,2.17-3.8,0-7,4.08-5.77,7.31.39,1-2,5-5.34,8.79-4.52,5.2-6.7,6.71-8.64,6-2.39-.9-2.42-1.19-.28-3.58a9.46,9.46,0,0,0,2.32-5c0-3.94,4.08-10.68,6.46-10.68,1.58,0,2-.85,1.55-2.82-.39-1.54-.1-3.19.63-3.65.89-.56.87-1.41-.07-2.53s-.56-2.21,1.41-3.43c3.51-2.18,3.61-5,.14-3.87a4.35,4.35,0,0,1-4.45-1.27c-1.87-2.24-.75-4.92,2.06-4.92,1,0,2.83-1.55,4-3.38,2.84-4.36,11.94-5.49,15.65-2,3.4,3.24,4.59,1.82,1.41-1.69s-1.55-6.07,3.37-5c2.81.63,4.16.28,4.74-1.23,1-2.67,3.34-2.9,4.22-.42Zm-59.84,15.46c-.78,2.39-10.83,3-10.83.71,0-2.75,5.76-5.1,8.85-3.61,1.41.67,2.29,2,2,2.9ZM931,1300.7c-2.38,2.38-3.66,0-1.45-2.67,1.29-1.55,2.05-1.72,2.43-.56a3.38,3.38,0,0,1-1,3.23Zm-102.33.22c3,2.29,2,5-2,5-1.41,0-2.67.73-2.67,1.55s1.4,1.29,3.51.91c2.67-.48,3.52,0,3.52,1.9,0,3.61-1.27,3.85-8.86,1.64-6.75-2-8-4.55-2.95-6,1.4-.39,2.74-1.54,2.82-2.43.35-3.93.71-4.63,2.38-4.56a9.8,9.8,0,0,1,4.22,2Zm72.67,5.54c0,.33-.91.92-2.18,1.41s-1.81.25-1.31-.56c.79-1.27,3.49-1.92,3.49-.85ZM820.48,1318c2.39.92,3,8.27.85,9.61-1.6,1-4-2.05-4.33-5.56-.55-5.21-.29-5.51,3.48-4Zm98.29,2.78c1.29,3.37,1,13.11-.5,15.88-.77,1.44-3.18,3.3-5.57,4.29s-6.52,4.57-9.28,7.94-6,6.19-7.17,6.19c-3.25,0-10.4,7.73-10.4,11.24s-5.06,8.28-8.72,8.36c-3,.08-3-.2-.41-6.39a35.15,35.15,0,0,0,2.1-11.38v-6.33l-3.44,2.25a15.83,15.83,0,0,1-7.1,2.25c-3.19,0-3.6-.49-3.24-3.87.33-3,1.17-3.86,3.59-3.86,2,0,4.39-1.83,6.46-4.92,1.8-2.67,4.53-5,6-5,7.73-.37,9-.71,9-2.4,0-1.08-1.54-1.8-3.79-1.77-4.64.07-6.14-3.94-2.25-6,1.83-1,4.08-.61,8.15,1.35,7,3.37,10,2.66,17.71-4.3,7-6.33,7.69-6.58,8.89-3.46ZM807.55,1329c6.75.55,8.53,2.19,8.34,7.72-.27,8.44-1.44,10-7.49,10-3,0-5.49.65-5.49,1.41s-1.61,1.41-3.44,1.41a23.28,23.28,0,0,0-7,1.4c-3.49,1.37-3.58,1.27-3.58-4.22,0-5.76,2-7.3,5.2-4.07,2.33,2.33,11.3-1.27,12.25-4.92,1-3.8.34-4.3-3.12-2.45s-7.3,2-9.84.36c-1.39-.87-1.47-2.06-.35-5,1.24-3.23,2.11-3.72,5.35-3a74.55,74.55,0,0,0,9.2,1.34Zm-23.26,23.26a5.51,5.51,0,0,1-1.83,4.35,5.89,5.89,0,0,0-2,3.94,17.17,17.17,0,0,1-2,6.12,11.57,11.57,0,0,0-1.19,6.88c.67,2.67.36,3-2.25,2.32-2.25-.57-3-.09-3,1.9,0,4-5.2,7-9.28,5.45-2.53-1-3.71-.58-5.41,1.79-1.2,1.67-5.48,4.06-9.56,5.34-5.9,1.86-7.66,3.14-8.8,6.4-2.6,7.45-5.77,10.8-9.4,9.94a12.87,12.87,0,0,0-7.31,1.23,19.93,19.93,0,0,1-7.31,2c-7.32,0,0-12,9.56-15.64,3.79-1.45,5.41-4,2.53-4-.85,0-.71-1.12.35-2.81a6.42,6.42,0,0,1,4.57-2.88,11.36,11.36,0,0,0,5.48-2.09c3.51-2.65,6.47-2.62,6.47,0,0,2.39,2.16,2.83,3.48.7a4.58,4.58,0,0,1,3.47-1.4,3.82,3.82,0,0,0,3.38-2.11c.46-1.27,0-2.11-1.2-2.11-2.3,0-1.4-3.67,1.13-4.59.92-.33-.07-.42-2.18-.19s-3.87.1-3.87-.28c0-1.06,7.59-7.28,9-7.37.62-.05,2-1.21,3-2.61,1.61-2.15,2.32-2.28,4.71-.83,4.64,2.81,7.66,2.13,10.68-2.4,1.6-2.39,3.27-4.22,3.87-4.22s1-.84,1-2a3,3,0,0,1,1.76-2.67,10.63,10.63,0,0,0,1.83-.84,18.79,18.79,0,0,1,.28,2.6Zm40.89.91c-1.85,2.25-4.93,2.53-6.14.56-1.5-2.43.46-3.89,4.26-3.18,2.81.52,3.18,1,1.88,2.62Zm45.73,22.35c1.61,4.22.94,6.92-2.67,10.82-4.68,5.07-9.1,5.2-9.1.29,0-3.1.54-3.56,3.51-3s3.19.24,1.9-1.33-1.23-2.81,0-5.48c1.81-3.94,5.1-4.59,6.37-1.27Zm-678.8,5.39c2.22,3.38,1.83,9.28-.63,9.28-1.78,0-4.77-8.15-3.86-10.54,1.1-2.9,1.89-2.67,4.49,1.26Zm653.25,6.84c-2.13,2.13-3.66.56-2.47-2.53.71-1.83,1.31-2,2.54-.77s1.2,2-.07,3.3Zm-156.87,7.66c2.81,1.86,4.22,2,7,.72,5.2-2.37,5.88-1.95,4.86,3-.66,3.23-1.6,4.38-3.31,4.09-2.89-.49-8.44,5.18-10.87,11.09-1.32,3.23-2.47,4.17-4.45,3.65s-3,.21-3.94,2.6a14.79,14.79,0,0,1-4.92,5.7c-3.54,2.31-3.8,2.25-8.15-1.9-3.52-3.35-5.35-4.14-8.37-3.59s-3.86.17-3.86-1.54c0-1.44,1.26-2.25,3.51-2.25,4.22,0,4.58-2.16.7-4.25-1.54-.83-2.81-2.4-2.81-3.48,0-2.39,3.75-4,4.91-2.11.48.79,2.4,1,4.37.56,2.53-.61,4.07-.11,5.48,1.76,1.7,2.25,2,2.28,2,.28,0-1.28,1.3-3.8,2.81-5.62,2.45-3,3.07-3.11,5.84-1.41,3,1.84,3.06,1.76,2.19-2.88-1.34-7.17.76-8.5,6.94-4.43Zm160.81,6.82c0,.78-2.81,1.51-6.33,1.64-5.76.22-7.6-.64-5.62-2.63,1.3-1.29,11.95-.42,11.95,1Zm-198.2,10.54c0,2.16-1,2.81-4.22,2.81-2.38,0-4.29.61-4.39,1.41-.34,2.72-.65,3.51-2.61,6.6-2.79,4.43-5.58,3.94-10.39-1.82-4.4-5.27-3.55-7.48,2.92-7.56a19.43,19.43,0,0,0,7-2.18c5.91-3.11,11.67-2.74,11.67.74Zm76.79.7c1.55,4-2,7.41-8.61,8.36-3.52.5-6.82,1.85-7.24,3a3.7,3.7,0,0,1-3.17,2c-3.25,0-5.76,2.81-5.76,6.46,0,3.15-3.23,5.52-6.75,4.94a6,6,0,0,0-3.86,1.32c-1.2,1-3.8,1.27-6.33.77a17.8,17.8,0,0,0-9.13,1.2c-2.67,1.12-4.85,1.44-4.85.7a1.2,1.2,0,0,1,1.19-1.34c.64,0,2.11-1.82,3.16-3.93,3.38-6.75,4.3-7.57,6.47-5.73s4.32-.32,8.22-8.33c1.23-2.53,2.77-4.5,3.52-4.5s1.33-1,1.33-2.1,1.27-2.11,2.81-2.11c4.25,0,3.38,4.65-1.54,8.28-2.39,1.76-3.88,3.65-3.43,4.37,1.4,2.23,6.8-1.13,11.08-6.89,4.07-5.48,9.22-7.66,14.7-6.22,1.54.41,3.23,0,3.75-.81,1.29-2.11,3.51-1.83,4.44.56Zm-110.66,3c1.49.5,1.17,1.5-1.34,4.17-3,3.24-3.44,3.33-5.06,1.2-1-1.27-2.59-2-3.58-1.69a7.19,7.19,0,0,1-4.64-.84c-2.69-1.41-2.67-1.51.42-2.23,4.64-1.09,11.84-1.39,14.2-.61Zm-82.05,6.14c1.05,1.69-4.54,4.6-6.51,3.39-.91-.55-.81-1.56.26-2.83,1.91-2.25,5-2.53,6.25-.56Zm119.58,3.5c4.49,3.42,4.57,3.66,2.53,7.75-1.2,2.39-2.66,4.21-3.38,4.21s-4.14,2.85-7.66,6.33c-5.48,5.42-7.22,6.32-12.16,6.32-4.64,0-5.9.55-6.46,2.82a3.59,3.59,0,0,1-3,2.81,27.23,27.23,0,0,0-5.49.84c-2.39.64-3.16.29-3.16-1.41a2.09,2.09,0,0,1,2-2.24c1.08,0,2.29-1.27,2.69-2.82,1-3.77-.72-3.57-5.78.68a14.45,14.45,0,0,1-9.21,3.54c-3.8,0-5.2.67-5.86,2.81-1,3.24-7,4.07-8,1.13-.42-1.2-1.72-.5-3.74,2-1.69,2.1-4.34,3.86-5.84,3.86s-2.74.52-2.74,1.2-2.67,2.24-5.9,3.51c-6.89,2.71-9.84,1.26-5.9-2.88,1.49-1.57,3.75-4.15,5.13-5.84s3.67-3,5.2-3,4-1.61,5.55-3.58c2.31-3,3.31-3.32,5.62-2.09,4.22,2.24,10.75,1.71,13.3-1.07,1.79-2,1.93-2.91.62-4.22s-.92-2.46,1.47-4.85,3.41-2.77,4.36-1.2,1.62,1.67,4.29-.21c1.69-1.19,4-1.86,5-1.47s3.86-.7,6.25-2.39l4.36-3.1,5.77,2.86c5.62,2.78,8.15,2.85,8.15.24,0-.68-1.48-1.46-3.16-1.69-3.11-.41-3.1-.49.7-4.08,2.11-2,3.86-4.67,3.86-5.9,0-3.51,5.35-3,10.69,1.11Zm-430,3.72c2.11,2.11,2.2,6.75.14,6.75-2.24,0-5.48-3.66-5.48-6.19s2.92-3,5.34-.56Zm8.5,15c.38,2.53-.11,3.19-2.11,2.81-1.44-.27-2.82-2-3.09-3.79-.38-2.53.12-3.19,2.11-2.82a4.58,4.58,0,0,1,3.09,3.8Zm139.34,2.68c3.23,2.14,5.76,4.45,5.76,5.28a24.2,24.2,0,0,0,.85,4.57c1.1,4-1.27,4.13-8.3.38-2.81-1.5-6.1-2.77-7.17-2.77-2.5,0-6.46-5.34-6.46-8.71,0-4,8.43-3.29,15.32,1.25Zm132.27,1a14.52,14.52,0,0,0,.85,2.82c.52,1.4,0,2.25-1.41,2.25s-2.25-.25-2.25-.57a15.2,15.2,0,0,0-.84-2.81c-.53-1.4,0-2.25,1.4-2.25s2.25.25,2.25.56Zm44.2.71c1.53,2.44-1,5.88-5,6.65-2.25.44-4.08,1.33-4.08,2s-1.82.56-4.21-.28c-4.64-1.62-5.82-5.41-1.69-5.41a10.9,10.9,0,0,0,5.2-2c3.09-2.33,8.56-2.86,9.76-.94Zm18.5,7.87c2.23,2.24,1.54,4.92-1.27,4.92-.87,0-3,1.31-4.78,3-4.1,3.82-5.17,2.89-2.5-2.17a18.17,18.17,0,0,0,2.08-5.9c0-2.61,3.79-2.53,6.47.14ZM463.39,1461l3.57,4.49-3.8,3.8c-4.07,4.08-13.07,6.88-13.07,4.08,0-.94,1.13-2,2.53-2.47,6.33-2,6.71-2.25,3.8-2.93-4.19-1-4.81-3-2.26-7.54,2.93-5.17,4.78-5.06,9.23.57Zm19.74-.43c.45.76,2.53,1.41,4.49,1.41,3.24,0,7.3,3.32,7.41,6,0,.55-2.77,1-6.28,1-5.48,0-6.33-.4-6.33-3,0-2.25-.67-2.79-2.81-2.24-3.09.78-5-.94-3.54-3.25.46-.74,2.14-1.4,3.54-1.4s3.07.66,3.52,1.4Zm-13.36,12c0,1.13-.62,2.11-1.33,2.11s-1-1-.57-2.11,1-2.11,1.34-2.11.56,1,.56,2.11Z"/><path d="M385.43,311.39c-1.44,1.81-1.26,2.11,1.27,2.11,1.68,0,2.95-.9,2.95-2.11s-.59-2.1-1.27-2.1-2.05,1-2.95,2.1Z"/><path d="M2450.35,649.71c-1.69.63-6.82,1.31-11.32,1.5-6,.26-8.37.93-8.78,2.53-.31,1.22-3,2.9-6.12,3.8s-11.52,5.88-18.83,11.1a234.9,234.9,0,0,1-23.12,14.55c-14.69,7.55-16.17,8.58-35.57,24.8-7.31,6.11-14.59,12-16.3,13.18-9.32,6.42-30.65,24.86-45,38.88-7.07,6.92-45.57,55.13-53.91,67.5l-12.59,18.7c-6.82,10.12-21.5,38.63-21.5,41.75a6,6,0,0,1-2.81,4.28c-1.55,1-2.81,2.62-2.81,3.66s-1.5,4.71-3.31,8.08a117.54,117.54,0,0,0-6.27,15.32c-8.82,27.13-10.44,32.56-12.76,42.88-1.4,6.18-2.57,12.19-2.61,13.35s-.76,8.72-1.62,16.87c-1.73,16.54-1.12,29.52,2.64,56.22,3.5,24.88,5.82,33.58,13.16,49.2,5.35,11.39,20.17,30.28,29.46,37.55,3.24,2.53,7.62,6.16,9.7,8,4.48,4,23.2,13,31.35,15,19.26,4.81,24.31,5.47,35.14,4.58,6.61-.55,13.28-2,16.17-3.53,2.67-1.41,5.75-2.6,6.74-2.6,2,0,6.89-2.6,9.7-5.21a6.79,6.79,0,0,1,3.94-1.82,4,4,0,0,0,3.09-1.83c.61-1,3.37-3.36,6-5.2A33.61,33.61,0,0,0,2339,1137a36.72,36.72,0,0,1,3.73-4.36c1.11-1.07,11.92-8.85,12.72-13.07.66-3.51,2.25-5.72,5.76-8,2.67-1.74,4.85-4.24,4.85-5.55s2.81-5.21,2.81-6.47,1.93-4.64,4.22-7.31,6.75-13.89,10.54-17.64c3.52-3.48,9.14-15.16,13.78-17.19,2.11-.92,17.62-24.86,20.38-26.6a34.92,34.92,0,0,0,6.82-6c1.66-2,3.46-3.17,4-2.67s.83,6.18.64,12.65-.33,13.5-.31,15.67c.19,14.34.14,19.38-.27,25.58-.53,8,1.31,21.79,4.42,33,1.18,4.28,3.34,12.93,4.84,19.4,3.34,14.33,6.59,20.91,14.3,29,6.94,7.23,16.44,10.69,29.38,10.69,6.6,0,8.48-.54,9.91-2.82,1-1.54,2.83-2.81,4.14-2.81,3.09,0,9.89-3,11.61-5.2s20.44-11.66,22.83-11.66c.91,0,2.53-1.2,3.52-2.61a11,11,0,0,1,4.84-3.58,12.69,12.69,0,0,0,5.28-4.43c1.19-1.82,3.27-3.44,4.42-3.44a3.53,3.53,0,0,0,3-2.46,19.73,19.73,0,0,1,3.3-5.27c2.15-2.47,2.27-4,.91-12.44-1.1-6.89-1.1-10.33,0-12.09a4.45,4.45,0,0,0,.3-4.43c-1.17-1.83-.67-26.43.88-43.43,1.15-12.73,1.2-22.21.2-41.89-.78-15.32-.59-19.27,1.08-21.86,1.43-2.21,2.27-8.86,2.81-22.07.43-10.4,1.13-21.12,1.55-23.83s-.14-12.79-1.26-22.49-2.07-18.51-2.11-19.68a105.58,105.58,0,0,0-2.32-11.24c-1.25-5.06-2.45-10.08-2.7-11.25-2.36-11-15.68-28.79-22.6-30.23-11.39-2.39-30.42-4.67-34.44-4.14-15.75,2.09-21,4.29-22,9.21-.42,2.11-1.71,4.26-2.76,4.64a3.59,3.59,0,0,0-2,3.23c0,2.94-3.45,13.08-6.23,18.56s-7,18.27-12.71,38.09c-5.27,18.42-8.91,29.22-10.65,31.63-.56.78-3.29,5.76-6.16,11.24-7.79,14.9-15.51,29.16-20.7,38.24-2.57,4.5-6.23,11.3-8.17,15.18s-4.2,7.49-5.06,8.08-2.39,3.1-3.45,5.63a30.67,30.67,0,0,1-3.72,6.67c-1,1.16-4.52,6-7.79,10.83-5.1,7.44-15.93,21.36-27.68,35.56-1.63,2-4.6,6-6.76,9.28-10.64,15.88-24.9,30.58-34.66,35.73-6.33,3.34-6.69,3.37-8.57.88-1.06-1.4-4.31-5.13-7-8.08s-5.37-6.91-5.74-8.57a108.94,108.94,0,0,1-2.13-15.61A3.58,3.58,0,0,0,2291,1090c-2-.78-1.41-7.59.7-7.59,1.44,0,.69-25.86-.86-29.94-.6-1.56,0-3.58,1.56-5.27,2-2.15,2.61-5.55,2.89-15.67a122.81,122.81,0,0,1,2.53-21.65c1.19-4.78,1.75-9.8,1.24-11.11-.81-2.09,0-4.78,3.93-12.37.67-1.31,1.22-4.92,1.22-8s.63-5.62,1.41-5.62,1.4-1.2,1.4-2.74.62-3.11,1.41-3.59,1.4-3.72,1.4-7.24c0-4.92,1-7.62,4.22-11.73,2.33-3,4.22-7,4.22-9s.65-3.65,1.4-3.65,1.41-1.2,1.41-2.6,1.76-4.08,4-6a21.34,21.34,0,0,0,5.55-7.94,27.8,27.8,0,0,1,5.13-8.43c2-2.11,3.66-4.83,3.76-6,.35-4.11.61-4.92,3-9.42,1.36-2.53,3.21-5,4.24-5.66,2.52-1.59,8.89-10.5,9.92-13.88.5-1.64,4.69-6.88,9.41-11.8,7.7-8,15.39-20.39,15.39-24.74,0-.94,2.6-3.63,5.84-6a41.49,41.49,0,0,0,8.23-8c5-7.59,38.9-41.72,46.38-46.67,7.87-5.2,18.27-14.81,18.27-16.87,0-1.68,6.12-8.71,7.59-8.71.71,0,4.17-3.09,7.87-7s7-7,7.45-7c2.58,0,16.56-10.26,18.58-13.63,1.37-2.28,5.74-5.5,10.38-7.65,13.49-6.25,21.1-21.3,15.46-30.59-3.34-5.48-20.13-19.29-24.88-20.46-2-.5-10-4-17.85-7.85-14.62-7.14-28.36-10.38-34.44-8.12Z"/><path d="M1125,1001.22a1.48,1.48,0,0,0,2.11.64c2-1.23,1.69-2-.84-2-1.13,0-1.72.65-1.27,1.4Z"/><path d="M1122.45,1020.5c-3.92,1-2.67,3.21,1.83,3.21q4.21,0,4.22-2.11c0-2.05-1.41-2.3-6-1.1Z"/><path d="M1111.9,1042.9c-4.92,1.64-5.86,3.42-3.29,6.23,2.37,2.59,2.5,2.54,4.28-1.82,3.75-9.18,22.08-12.1-1-4.41Z"/><path d="M113.86,1194.43c.62,3.38.82,3.48,1.79,1,1.53-3.94.07-12.38-2-12.38-1.29,0-.28,8.72.22,11.39Z"/><path d="M113.79,1201a16.51,16.51,0,0,0-1,5.62c.07,2.81.17,2.85,1.48.49a10.64,10.64,0,0,0,1-5.62c-.38-2.81-.51-2.86-1.47-.49Z"/><path d="M1017.93,1222.7c-1.29.92-4.92,7.89-4.92,9.44,0,1.72,4.28-1.41,5-3.66.68-2.1,1.36-2.43,2.73-1.28,2.25,1.89,3.43.58,2.52-2.79-.76-2.81-2.86-3.49-5.33-1.71Z"/><path d="M1008.22,1236.5c-1.15,3,.15,4.78,3.53,4.78s3.51-3.71,0-5.6c-2.11-1.13-2.85-1-3.53.82Z"/><path d="M1020,1242.82c0,2.53.3,2.71,2.11,1.27,1.12-.9,2.11-2.28,2.11-3s-1-1.26-2.11-1.26-2.11,1.26-2.11,3Z"/><path d="M1004.09,1266.09a3.67,3.67,0,0,0-.92,2.38c0,.87.71.78,1.69-.21s1.36-2,.91-2.39a1.18,1.18,0,0,0-1.68.22Z"/><path d="M999.63,1270.79c-1,1.62.31,4.22,2.14,4.22a1.4,1.4,0,0,0,1.4-1.47c0-.78-.77-1-1.61-.5-1,.64-1.3.14-.71-1.4,1-2.53.18-3.08-1.22-.85Z"/><path d="M985.73,1291.61c1.11,4.44-3.76,9.62-8.26,8.78-3.59-.66-4.92,1.34-4.92,7.38v3.8l2.46-3a13.9,13.9,0,0,1,5.55-3.94c3.52-1,11-12.56,9.57-14.82a3.67,3.67,0,0,0-3-1.41c-1.61,0-2,.85-1.37,3.24Z"/><path d="M904.12,1358.54a7.59,7.59,0,0,1-2.32,4.29c-1.54,1.5-1.85,2.72-.91,3.65s2.38-.14,4.41-3.37c3.63-5.76,3.75-6.61.93-6.61a2.14,2.14,0,0,0-2.11,2Z"/><path d="M155.64,1364.29a14.36,14.36,0,0,0-.77,4.56c0,2,.38,1.9,2.08-.35,2.33-3.09,2.75-6.46.8-6.46-.71,0-1.64,1-2.11,2.25Z"/><path d="M895.12,1368.73c-1.61,1.62-1,3.24,1.27,3.24a2.17,2.17,0,0,0,2.11-2.11c0-2.25-1.69-2.81-3.38-1.13Z"/><path d="M749.36,652.54a1.41,1.41,0,1,0,1.4-1.4,1.33,1.33,0,0,0-1.4,1.4Z"/><path d="M561.87,701.76c0,1.41.45,1.86,1.06,1.06a15.57,15.57,0,0,1,2.32-2.46c.69-.58.21-1.06-1.06-1.06a2.34,2.34,0,0,0-2.32,2.46Z"/><path d="M700.16,852c-1.27.8-1.39,1.25-.35,1.25a13.5,13.5,0,0,1,3.86.84c1.27.48,2.25.23,2.25-.56,0-2-3.51-3-5.76-1.53Z"/><path d="M727.43,861.57c-1.33,2.11-1.29,3,.21,4.29s1.85,1,1.69-.92c-.14-1.65.91-2.69,3-3,4.08-.57,4.08-3.05,0-3.05a6.31,6.31,0,0,0-4.92,2.67Z"/><path d="M743.2,864.52c-.47.76-2.42,1-4.24.56-3.48-.86-3.44-1.12-1.52,8.16.55,2.67,1.72,3.93,3.62,3.93s2.82.94,2.82,2.67a17.66,17.66,0,0,0,.84,4.92c.62,1.65.07,2.16-2,1.9-1.55-.19-2.91.14-2.95.7s.21,1.06.63,1.06h5c2.53,0,3.93-.58,3.42-1.41-1.19-1.94,3-1.77,6.21.25,2.09,1.3,3.3.81,7-2.85,3.51-3.51,4.25-5.15,3.58-7.94-.5-2.11-.22-3.51.71-3.51s1.54-1.27,1.54-2.81-.5-2.82-1.12-2.82c-1.3,0-5.18,6-4.78,7.45.17.59-.28,1-1.13,1s-1.4-1.27-1.4-2.67c0-4.22-1.51-7.17-3.66-7.17a2.29,2.29,0,0,0-2,2.53,6.51,6.51,0,0,1-1.55,4.07c-1.13,1.13-.7,1.82,1.55,2.53,3.6,1.14,3.09,4.22-.71,4.22-2.89,0-9.65-11.38-8.51-14.34.82-2.1-.08-2.39-1.3-.42Z"/><path d="M656.72,879.7c0,5.06.66,7,2.82,8.37s2.81,1.36,2.81-.21c0-3,5.2-6.87,9.7-7.22,5.2-.41,6.77.65,7.37,5,.32,2.25,1.26,3.4,2.61,3.19,3-.45,6,6.93,4.75,11.71-.67,2.67-.48,3.5.66,2.81a3.76,3.76,0,0,0,1.61-2.81c0-3.31,5.35-6.81,9-5.88,3.16.8,4.62,1.94,8.75,6.86,1.32,1.57,3,1.65,8.19.42,5.62-1.33,6.43-1.94,5.76-4.35a22,22,0,0,1-.77-4.22c0-1.75-7.45-5.73-13.07-7-3.24-.72-3.94-1.46-3.38-3.57.84-3.24-1.5-3.85-2.7-.71-.44,1.14-2.5,2.11-4.47,2.11-4.49,0-15.74-4.11-15.74-5.76,0-.7-.91-1.27-2-1.27a21.37,21.37,0,0,1-6-1.68,36.43,36.43,0,0,0-9.91-2l-6-.35v6.6Z"/><path d="M670.12,888.28c-1,1.54,2.62,4.77,3.89,3.5a4.58,4.58,0,0,0,1-2.8c0-2.11-3.68-2.64-4.88-.7Z"/><path d="M733.35,895.31c-1.06,1.71,4.48,4.74,6.45,3.53.86-.53.42-1.61-1.13-2.79-3.09-2.35-4.23-2.51-5.32-.74Z"/><path d="M673.54,906.69c1.8,3.38,5,3.86,3.72.56a14.59,14.59,0,0,1-.86-2.81c0-.32-.91-.56-2.17-.56-1.75,0-1.88.56-.69,2.81Z"/><path d="M696.37,909.78c.9,2.68,5.34,3.14,5.34.57,0-1.29-1.27-2.25-3-2.25s-2.71.72-2.38,1.68Z"/><path d="M801.51,914.35c0,1.12,1.4,2.79,3.09,3.69,4.36,2.32,5.21,4.1,3.79,7.91-1.72,4.64-1.59,6,.57,6,1.7,0,5.2-5.48,5.2-8.15,0-1.83-9.23-11.52-11-11.52a1.88,1.88,0,0,0-1.68,2Z"/><path d="M752.72,918.92c-.46,1.21-3.85,1.85-10,1.9-8.85.07-9.16.17-5.83,2.06,4.94,2.8,9.7,2.53,15.32-.86,3.75-2.26,6.18-2.76,10.26-2.11,5.62.9,9-1.46,3.66-2.58s-12.66-.25-13.37,1.59Z"/><path d="M786.33,917.62c-2.53.26-4.5,1.26-4.5,2.29,0,2.67,7.46,3.53,9.71,1.12,2.46-2.64.41-4-5.21-3.41Z"/><path d="M798.13,924.26c-2.24,1.17-5.08,2-6.32,1.76-1.43-.22-2.41.77-2.7,2.74-.6,4.08,2.53,4.3,6,.42,1.4-1.54,3.34-2.81,4.31-2.81a5.85,5.85,0,0,0,3.5-2.11c2.22-2.68.37-2.68-4.84,0Z"/><path d="M764.42,927.5c-1.09,1.73,2.79,4.94,4.62,3.81a2.62,2.62,0,0,0,.61-3c-.84-2.25-4-2.76-5.23-.84Z"/><path d="M774.76,930.59c-1.13,2.11-1,3.34.6,4.92,2.25,2.25,4.36,2.9,3.16,1s3-6.27,5-5.28c1,.51.56-.07-1-1.29-3.65-2.89-6-2.69-7.77.67Z"/><path d="M808.11,940.64c-2.09,4.5-2.13,5.62-.33,9.07,2.68,5.12,4,2.24,3.24-7.31l-.52-6.89-2.39,5.13Z"/><path d="M787.34,943.8a12.35,12.35,0,0,1-6.5,7c-5.62,2.65-5.83,4.25-1,7.44,3.51,2.31,3.73,2.3,5.62-.27a36.43,36.43,0,0,0,3.66-7.38c1.26-3.51,2.42-4.6,4.57-4.29s3-.49,3.3-2.6c.33-2.39-.18-2.87-2.46-2.32-1.69.41-2.88.06-2.88-.84,0-3.3-2.72-1.27-4.33,3.23Z"/><path d="M772.41,946.05c.39,1.55.2,2.81-.42,2.81s-1.77,1.83-2.6,4.22-2.15,4.22-3,4.22c-2.58,0-1.55,2.61,1.4,3.55s3.73,4.17,1.55,5.52-5.77-.78-5.77-3.59c0-1.41-.86-2.67-1.82-2.67-1.91,0-6.61,7.59-6.61,10.68,0,2.25,3.55,2.77,4.81.7,1-1.64,12.2-1.55,14.45.12,1,.73,1.83,0,2.32-1.94.42-1.69.32-3.45-.21-3.87a20,20,0,0,1-2.84-4.43c-1.82-3.58-1.31-7.87,1.87-15.74.68-1.69.26-2.39-1.42-2.39s-2.18.84-1.69,2.81Z"/><path d="M701.71,951.11c0,1.13.65,1.72,1.4,1.27a1.48,1.48,0,0,0,.64-2.11c-1.23-2-2-1.69-2,.84Z"/><path d="M573.09,955.89c-2.53.93-2.54,1-.07,2,1.4.53,3.18.4,3.86-.28,1.83-1.83-.56-2.89-3.79-1.69Z"/><path d="M795,956.59a4,4,0,0,1-3.47,2.11,2.48,2.48,0,0,0-2.64,2.53c.06,3.66,2.17,6.42,4.32,5.64,1.1-.4,3.66.24,5.77,1.45,4.78,2.72,8.3.51,4.78-3a7.48,7.48,0,0,1-2.25-4.36c0-5.76-4.75-8.94-6.51-4.36Z"/><path d="M625.8,958.74c-1.55,1-.7,1.37,3.23,1.37,3.24,0,5-.56,4.46-1.41-1.08-1.71-5-1.69-7.69,0Z"/><path d="M780.27,979.93c-4.08,4.36-5.11,6.89-2.8,6.89.61,0,2.72-1.76,4.64-3.87a39.93,39.93,0,0,1,6.18-5.55c2.5-1.58,2.46-1.69-.63-1.76-1.92,0-5,1.76-7.39,4.29Z"/><path d="M819.08,985.41c-.51.84-.28,1.41.56,1.41a2.81,2.81,0,0,0,2.25-1.41c.51-.84.28-1.41-.56-1.41a2.78,2.78,0,0,0-2.25,1.41Z"/><path d="M800.88,993.77a1.54,1.54,0,1,0,2.1-.56,1.45,1.45,0,0,0-2.1.56Z"/><path d="M415.32,1400.76c.45.74,2.46,1.4,4.29,1.4s3.44-.66,3.44-1.4-1.89-1.41-4.28-1.41-3.94.58-3.45,1.41Z"/><path d="M844.59,1297a3.76,3.76,0,0,0-.91,2.39c0,.87.7.78,1.68-.21s1.37-2,.92-2.39a1.2,1.2,0,0,0-1.69.21Z"/><path d="M899.9,1337.6c0,1.48,1,2,3.1,1.73,4.49-.66,5-3.91.56-3.91-2.39,0-3.66.75-3.66,2.18Z"/><path d="M892.88,1345.82c0,1.08-1.27,2.29-2.82,2.67a3.63,3.63,0,0,0-2.81,3.09c0,1.55.8,2.1,2.25,1.55a14.07,14.07,0,0,1,4.08-.84c2.25,0,3.71-3.52,2.64-6.33s-3.34-2.77-3.34-.14Z"/><path d="M761.31,1369.66c-2.53,1.38-2.67,1.88-1,3.5s2.81,1.55,6,.21c2.25-.93,4.73-1.27,5.55-.77s1.47.31,1.47-.49c0-3-8-4.66-12.08-2.45Z"/><path d="M646.46,1431.57c-.45,1.12-.25,2.47.42,2.89,1.83,1.14,3.43-2,1.83-3.6-.93-.93-1.68-.7-2.25.71Z"/><path d="M1488,1156a2.86,2.86,0,0,0-.22.3C1487.06,1157.44,1487.9,1156.84,1488,1156Z"/><path d="M1558.3,1094.07a4.52,4.52,0,0,0,.3-4.51c-1.07-1.69-2.82-30.53-1.94-48.76a19.09,19.09,0,0,0,.12-2.16c.06-1,.13-2,.22-2.9l-.26.18c-.56-43.52-1-103.05,1.81-146.86,3.51-54.44,23.22-167.93,17.4-186.48-7.51-24-55.25-40.92-96.89-29.89-3.45.91,7.28,2.74,9.3,8.23,1.82,5.39,0,15.65-.71,18.24,0,0-11.28,50.64-15.38,69-5.7,25.55-7.31,50.81-12.81,76.51-11.74,54.93-7.26,115.17-39.08,161.44-16.46,23.94-31.08,46.37-51,67.71-9.17,9.82-19.37,20.28-30.87,27.22-6.21,3.74-21.07,14-28.42,13.54-3.74-.25-6.11-2.13-8.3-9.53-5.29-17.91-6.08-51.32-6.13-69.82-.08-32.11-.65-62.63,2.47-94.36,5.26-53.39,15.8-107.74,21.92-160,2.76-23.57,4-58.53,1.4-82-4.53-40.84-60.76-52.94-96.87-44.26-2.63.63,8.1,4.35,9.06,9.54,1.3,7,0,12.48-1,19.55-2.87,20.44-6.79,45.47-12.26,65.38-10.86,39.59-17.17,80.27-24.2,120.68s-13,81.35-15.11,122.39c-1.16,22.46-2.28,45.46-.63,67.94a217.56,217.56,0,0,0,3,24.27c1.49,7.85,1.34,8,3.9,12.38,1.6,2.76,2.65,8.09,3.48,13.45,1.89,12.25,8.53,22.83,16.13,32.06,14.14,17.15,33.74,25.84,55.4,26.48,32.22,1,58.78-19.9,81.78-40.37,17.41-15.49,31.89-34.09,44.56-53.48,13-19.88,46.33-65.44,50.48-69.39-.65.34,3.57,55.23,4.19,64,1,13.89,2.32,29.23,6.65,43.14l-.49.35c3.4,14.59,9.83,26.46,17.68,34.64,7.06,7.35,9.37,11.37,22.53,11.37,3.28,0,3.85,1.07,3.75,1.91a5.85,5.85,0,0,1,4-2.55c3.15,0,10.06-3.1,11.82-5.3s20.8-11.87,23.23-11.87c.93,0,2.57-1.22,3.58-2.65a11.31,11.31,0,0,1,4.93-3.65,12.89,12.89,0,0,0,5.37-4.5c1.21-1.86,3.33-3.51,4.51-3.51a3.57,3.57,0,0,0,3.07-2.5,20.37,20.37,0,0,1,3.36-5.37c2.2-2.5,2.31-4.07.93-12.66C1557.18,1099.36,1557.18,1095.86,1558.3,1094.07Z"/><path class="cls-1" d="M1984.42,999c-1.54,0-1.71.7-2,8.29-.09,2.67.62,5.06,1.6,5.41,1.24.45,1.76-1.47,1.76-6.53C1985.83,1002.24,1985.19,999,1984.42,999Z"/><path d="M2455.46,424.75a15.75,15.75,0,0,0-2.3-2.21c-10.54-7.48-20.52-6.07-30.79-9.43-4.07-1.33-15.21-.42-16.87,0s-14,.67-15.53,0c-4.53-2-12.53-1.17-51.47,0-44.14,1.32-49.88.9-78.25,0-29.52-.94-54.79-3.14-60-1.95-1.64.37-12.37,3.35-14.06,1.95-1.14-.95-7-.19-9.84,0H2165.6l9.52-24.54c.79-6.61,2-10.22,3.94-12.09,1.54-1.47,2.81-3.28,2.81-4a37.37,37.37,0,0,1,2.67-7.31c1.48-3.32,4.36-11.6,6.47-18.62s4.48-13.5,5.34-14.55a10.16,10.16,0,0,0,1.75-4.57c.12-1.43,1.56-4.15,3.1-5.83s4-6.68,5.34-10.9,4-9.55,5.76-11.74,3.3-5.14,3.3-6.6.59-3,1.27-3.38c1.53-.93,10-16.23,10-18.06,0-.69,2-3.72,4.29-6.68a45.37,45.37,0,0,0,6.46-12.86c1.65-5.62,3.94-9.14,9.35-14.34,10.47-10.06,11-8.85,10.65,26.57-.14,15.46.23,34.6.81,42.52.88,12.09.89,18.83-.92,21.84-1.18,2-.73,5.59.3,5.88,1.22.35,3.05.37,3.8.61,2.11.66,13.35-4.21,13.35-5.79,0-.74,1.13-1.4,2.39-1.4,6.47,0,32.15-16.71,34.8-21.21a13.35,13.35,0,0,1,4.68-3.76c6.47-3.31,15.46-8.89,15.46-11.42,0-1.27,1.74-2,2.48-2.71,3-3,3.2-55.06.43-60.26-.83-1.55-1.5-7-1.5-12s-.61-9.21-1.41-9.21-1.4-1-1.4-2.25-1.89-4.64-4.22-7.59-4.23-6.16-4.26-7.17c-.06-2.39-5.91-11.67-13.65-23.47-4.35-6.64-23-22.91-56.31-22.91-31.36,0-52.67,15.37-56.5,18.65-10,8.51-43.94,46.57-50.59,56.69-1.17,1.77-6.09,8.43-10.91,14.76s-9.77,13.21-11,15.25-3.69,6.26-5.55,9.35-3.85,6.57-4.43,7.73-3.88,6.89-7.3,12.65c-7.08,11.95-18.49,35.11-18.49,37.53a5.3,5.3,0,0,1-1.9,3.09c-1,.85-3,4.57-4.43,8.23s-6.58,15.53-11.52,26.35-11.59,26.33-14.76,34.44-8.48,24.56-9,25.11c-.93,1.05-8.38,0-44.51,0-13.49,0-31.9-.23-40.77,0s-24.17,1-32.64,0-23.67-.11-31.08,0c-22.91.32-31.39,2.53-31.39,0,0-1.24,6.88-17.52,8.58-19.91a29.1,29.1,0,0,0,3.44-5.83c.2-.82,1.2-5.55,2.25-10.61s2.9-10.71,4.15-12.65,2.92-6.82,3.72-10.76a52.42,52.42,0,0,1,4.36-12.37c1.58-2.81,2.88-6.72,2.88-8.64s1.51-6.47,3.38-10.12a55.3,55.3,0,0,0,4.28-11.11,21.52,21.52,0,0,1,3.45-7.73c1.4-1.79,3.59-7.31,4.92-12.37s3.49-10.7,4.85-12.65a37.24,37.24,0,0,0,4.07-9.14c.91-3.13,2.58-8.85,3.8-12.93a59.34,59.34,0,0,0,2.25-9.84,11.07,11.07,0,0,1,2.11-5.27,10.43,10.43,0,0,0,2-5.27c0-1.39,1.59-5.06,3.52-8.15a40.84,40.84,0,0,0,3.51-6.33c0-.38,2-3.37,4.31-6.6,7.07-9.7,15.37-24.58,15.37-27.56,0-1.46,1.27-4.28,2.81-6.25s2.82-4.22,2.82-5a2,2,0,0,1,1.12-1.9c1.48-.66,8.71-16.23,8.71-18.76,0-1.09,1.27-2.67,2.82-3.52s2.81-2.49,2.81-3.65a3.27,3.27,0,0,1,2-2.81c1.07-.39,3.46-3.52,5.27-6.89,1.87-3.52,4.45-6.36,6-6.6,3.1-.47,7.73-7.88,7.39-11.82-.15-1.68,1.47-3.35,4.84-5a21.1,21.1,0,0,0,7.38-6c1.27-2,3.24-3.59,4.36-3.59s3.5-2,5.27-4.35.17-2.3,2.25-3.38c3.74-1.94,5.86-5.24,6.62-.74.43,2.51,7.15,33.94,7.51,40.12,1.06,18.13,4.07,39.89,5.27,40.65.63.4.52,1.66-.23,3.63a10,10,0,0,0-.53,4.16c0,1,4.22.69,6.75-.59,6.46-3.25,15.57-7.14,16.73-7.14,1.49,0,14.54-12.2,20.45-15.29,2.39-1.25,9.49-6.64,10.21-6.64s4-2.23,7.38-5l6.11-5-.7-14.33c-.39-7.88,0-21.11-.75-23.81s-1.72-7.31-2.17-10.12,2.2-8.37,1.21-9c-3-1.78-5.52-7.74-3.79-8.8s.56-7.11-1.41-7.11c-.67,0-1.26-1-1.26-2.11s-10.32-23.17-11-23.17-2.7-3.23-4.53-7.17C2081.27,33,2057.84,0,2016,0c-24.6,0-51.39,17.08-52.6,17.81-8.2,4.91-46.92,47-61.44,63.76-5.74,6.61-11.23,12.83-12.27,13.91-3.64,3.8-32.82,48.5-42.3,64.81-10.37,17.85-19.77,36.82-19.77,39.92a5.67,5.67,0,0,1-2,3.65,11.3,11.3,0,0,0-2.95,4.71c-.51,1.68-2.2,5.83-3.8,9.35-3.78,8.27-8.83,20.38-17.87,42.87-4.08,10.12-9.55,23.6-12.28,30.22-6.12,14.87-7.58,18.7-13.11,34.44-2.48,7-4.91,13.9-5.49,15.46-1.75,4.8-7.26,20.67-9.51,27.41-1.17,3.52-2.66,7.58-3.35,9.14-1.84,4.16-6.38,17.57-8.24,24.32-.89,3.23-4.09,11.25-4.63,11.33s-12.41-.69-31.39,0c-42.45,1.55-37.24-2.71-78.62,0-20,1.31-40.24-.18-58.31,0-23.67.24-43.89,1.74-57.65,0-26.43-3.26-39.24,2.49-48.48,0a3.47,3.47,0,0,0-3.59.9c-19-2.93-39.42-3.05-55.57-1.92-8.8.62-15.48-3.72-24-5.93-6.32-1.63-12-21.61-13-18.43-13.82,43.75-1.73,120.52,48.2,129.62,27.42,5,22.19,4.75,47.3,3.52a7.55,7.55,0,0,0,3.6-.17,5.91,5.91,0,0,1,5.55,1.4c2.13,2.06,2.75,1.84,7.38-2.65,6-5.86,8.72-6.25,8.72-1.28,0,3.76.07,3.79,8.93,3,5.9-.56,9.47-.3,10.54.77s7,1.8,14.2,2c11.24.38,12.78.12,14.54-2.39s2.22-2.5,3.66-.77A3.55,3.55,0,0,0,1550,522a4.69,4.69,0,0,1,3.8.35,10.68,10.68,0,0,0,5.55.78c2.11-.2,4.15.32,4.71,1.19.68,1.07,1.62,1,3-.21,1.66-1.43,2.74-1.35,5.84.41,4.63,2.65,25.86,2.55,29.09-.13,1.64-1.36,2.6-1.36,4.29,0,1.87,1.51,2.48,1.34,4.27-1.19,2.59-3.66,4.42-3.86,7.75-.87,2.11,1.89,3.65,2,9.28.82,7-1.52,14-.86,15.38,1.45.43.71,1.91.24,3.31-1,2.34-2.14,3-2.08,8,.84,5.34,3.08,5.62,3.1,10.69.71,4.49-2.13,5.81-2.22,9.7-.64,3.37,1.37,4.63,1.41,5.06.14.74-2.24,3.79-2.21,7.45.07,2.37,1.49,3.18,1.27,5.2-1.4s3.23-3.06,9.84-2.25c4.07.5,8.66,1.93,10.12,3.16,2.61,2.2,2.6,2.53-.14,14.2-1.54,6.54-3.74,18-4.85,25.3s-2.68,14.82-3.45,16.59a17.57,17.57,0,0,0-1.4,5.83,3.83,3.83,0,0,1-2,3.37c-1.26.5-2.22,3.73-2.67,8.93-.39,4.48-1.78,15.74-3.09,25s-2.52,18.77-2.67,21.09a22.82,22.82,0,0,1-1.41,6.67,28.33,28.33,0,0,0-1.34,8.09c-.11,3.09-.68,5.62-1.26,5.62s-1.05,2.18-1.05,4.85a29.4,29.4,0,0,1-1.48,8.71,7.85,7.85,0,0,0,.28,7.24c1.54,2.95,1.46,3.6-.63,5.13-1.27.93-2,2.75-1.62,3.87s.13,3.79-.63,5.76c-1.08,2.81-.92,4.16.7,5.84s1.72,2.88.63,4.84a8.5,8.5,0,0,1-2.74,3.16c-1.38.52-2.18,7.25-4.44,37-1.94,25.72-2.53,32.33-2.87,32.33-.15,0-.44,5.41-.63,11.87-.27,9.28-.87,12.27-2.74,13.64s-2.22,3-1.76,6.4c.35,2.55-.54,16-2,29.94-2.59,25.13-4.25,70.84-4,110.48.23,36.13,1.48,94.56,2.8,99.37a26.18,26.18,0,0,1,.49,9.28,39.47,39.47,0,0,0,.71,11.74c1,4.64,1,8.7.14,11.73-1,3.52-.86,5.17.63,6.82,1.07,1.18,2.4,4.43,2.92,7.1.87,4.44,1.62,6.61,5.14,14.76a34.24,34.24,0,0,1,1.57,8.78c.19,3.24,1.15,6.27,2.11,6.61s1.75,1.9,1.75,3.59c0,4.35,4,12.9,7,15,1.43,1,.21,12.58,11.85,16.1,15.31,4.64,67.83-15.86,69.12-17.83a7.13,7.13,0,0,1,5.69-3.44c1.83,0,3.81-1,4.22-2a6.18,6.18,0,0,1,3.72-3c5.06-1.63,10.93-6.69,12.9-11.14,2.69-6,3.48-24.33,1.28-29.52-2.8-6.61-2.4-14.12.86-16.35,2.69-1.84,2.73-2.34.94-11.76-2.49-13.07-5.62-19-10.07-19-3.06,0-3.31-.49-2.6-5.27.45-3.09,2.19-31.84,4.21-33.66,3.39-3,3.41-3.23,1.48-11.52-1.08-4.64-1.46-9.23-.85-10.19a1.85,1.85,0,0,0-.21-2.6c-.83-.53-.75-2.53.21-5.34,1.26-3.66,1.14-5.14-.63-7.88-2-3.09-1.9-4.14,1.06-12.58,1.77-5.06,3-9.39,2.81-9.63a18.17,18.17,0,0,1-1.13-4.28,13.8,13.8,0,0,0-2.89-6.11c-3.82-3.94.37-3.35,0-6.58s-1.33-5.86-2.08-9.17a2.48,2.48,0,0,1,.12-1.95c.39-.55,1.13-.7,1.75-1,2.69-1.12,3.5-4.68,2.85-7.52s-2.33-5.35-3.22-8.13c-2.32-7.26.73-15.13,1-22.48.16-3.64-1.69-11.38,1.26-14.35,2.38-2.39,2.17-7.16.08-9.21-1.18.42-1.42,1.13-2.06,2.12-1.41,2.14-5.12,1.35-6.3-.92s-.45-5.1.85-7.31a16.15,16.15,0,0,1,6.26-6,9,9,0,0,0,2.74-1.82c1.12-1.35,1.07-3.28,1-5-.11-8.43,2.9-15.87,4.44-23.91,1.65-8.56,1.93-17.61,2.26-26.3.21-5.76,1.22-12.26,2.22-14.34,1.47-3.06,1.47-4.64,0-8.15-2-4.92-3.58-5.3-5.65-1.41-2.37,4.47-5.6,3.66-5.6-1.4,0-3.38.54-4.24,2.39-3.84,3.23.7,10.3-2.78,10.2-5a17.28,17.28,0,0,0-1.27-4.49c-1.52-3.58,1.21-6.26,1.63-9.65.63-5.19-1-10.27-1.17-15.43-.2-4.87,1-9.66,2.2-14.38.7-2.79,8.57-40.77,4.15-40.77-2.4-1.49-1.26-8.38,1.69-10.25,2.32-1.48,2.77-2.79,2.11-6.17-.47-2.39-.28-5,.43-5.83,1.15-1.38,2.19-7.45,5.85-33.88.64-4.63.8-9.63.36-11.1-.79-2.6,1.25-11.25,4.08-17.29,1.4-3,.92-11-1-17-.72-2.25-.45-3.09,1-3.09,3.7,0,7-4.92,6-9-.55-2.22,0-5.55,1.42-8.5s1.94-6.31,1.34-8.58c-.78-2.92-.14-4.44,3-7.09,3.84-3.3,3.89-3.52,2.18-9.56-1-3.38-1.37-6.83-.91-7.59,1.3-2.14,12.75-1.31,15.84.35,2.25,1.2,3.11.94,4.33-1.31,1.93-3.58,3-3.61,6.91-.19,3.52,3.06,19,9.5,21.26,7.29q1.41-1.41-.28-3.09c-2.4-2.41-2-5,1.13-6.74,2.38-1.32,3-1,4.2,2.1,1.5,3.94,2.77,4.41,5.21,2,1.3-1.3,2.53-1.32,5.35-.07a20.84,20.84,0,0,0,6.81,1.61,8.1,8.1,0,0,1,4.85,1.69c1.28,1.28,1.31,6.67,2.74,4.7s3-2.33,5.49-1.69,4.14.21,5.27-1.19a5.92,5.92,0,0,1,3.79-2.11c1.18,0,3.66-1.21,5.63-2.75,4.21-3.3,6.91-3.59,8.48-.91.61,1,2.9,2.2,5.29,2.68s5.8,1.23,7.87,1.75a5.91,5.91,0,0,0,5.91-1.33c2.53-2.53,10.12-3.09,11.49-.85s3,1.74,7.48-2.08c5.06-4.3,7.31-4.57,7.31-.87,0,4.08,2.42,5,4.48,1.69,1.76-2.81,9.58-4.19,9.58-1.69,0,.94,7.17,4.36,9.14,4.36a11.14,11.14,0,0,0-.36-3.51c-.45-2.53,0-3.52,1.62-3.52,1.27,0,6.45-.27,6.07,4.09s-4.07,3.1-5.46,5.53-3.15,17.24-3.68,19.77-2.48,8.43-3.86,12.65c-3.41,10.4-6.33,33.56-6.29,38.36a17.32,17.32,0,0,1-1.16,6.33c-2.32,4.64-4.74,12.34-5.09,16.17a32.85,32.85,0,0,1-2,7.73c-2.11,5.18-5.41,39.08-7.27,54.41-.8,6.6-1.85,13.52-3.05,16.63-2.3,6-2.13,11.33-4.88,27.63-.9,5.35-2.26,10.9-3,12.37s-1.28,5.63-1.13,9.28c.16,3.8-.63,8.4-1.85,10.82-2,4,1.21,16.39.23,29.74a108.85,108.85,0,0,1-1.84,12.58c-.78,3.59-2.3,12.86-3.38,20.6-.9,6.41-2,12.64-.17,19a17.48,17.48,0,0,1,.86,3.89,14.4,14.4,0,0,1-1,5c-4.81,14.8-4.21,30.16-4.62,45.5-.21,8-3.55,24.14.1,31.62,1.85,3.79,1.31,11-.89,11.84s-2.18,40.61.6,74.91c1.42,17.57,2.24,30.65,2.62,41.75a11.27,11.27,0,0,0,3.25,7.38c2.55,2.38,2.81,3.44,1.49,6.12-2.51,5.08-3.28,17.85-1.64,27.27.86,4.92,2.08,8.85,2.75,8.85s1.15,1.69,1.09,3.8c-.29,11.52,7.93,25.46,6.56,30.5-5,18.42,12.33,26.59,18.51,28.47,8.08,2.46,13.8.28,20-1.76,6.47-2.11,5.67-1.42,12.18-3.67,11.48-4,63.09-16.46,60.53-32.9-.72-4.64-4.55-6.65-4.55-2.39a1.78,1.78,0,0,1-2.39,1.76c-5.2-1.07,1.07-8,2.72-9.38,5-4.07,9.16-2.93,8.83-11.66a26.87,26.87,0,0,0-5.82-15.66,12.44,12.44,0,0,1-2.33-3.5c-.85-2.43.22-5.06.7-7.59.86-4.5-.51-8.83-2.54-12.72,2.58-.68,4.76-.26,7.36.44a42.09,42.09,0,0,0-2.29-17.45,7.28,7.28,0,0,1-.62-2.62,9.61,9.61,0,0,1,.42-2c.7-2.8.38-5.74.22-8.62-.59-10.28,3.43-20.76-.72-30.59-1.19-2.81-1.76-5.65-1.29-6.39s-.44-2.74-2-4.43-3.26-45.29-3.8-47.12c-.86-3-.62-3.27,1.9-2.6,2.37.64,3-.07,3.8-4a24.19,24.19,0,0,0,0-8.58c-2.57-10.68,0-20.41-1.8-30.8-.6-3.45-2.31-6.72-2.27-10.22,0-2.26.78-4.44,1.19-6.67a47.69,47.69,0,0,0,.4-9.41c-.36-19.86,3.65-39.7,2.68-59.29-.15-3.09-1.11-6.51-2.12-7.59-2.62-2.78-1-8.55,3.67-12.81,2.11-1.94,3.61-4.52,3.38-5.81a3.41,3.41,0,0,1,1.12-3.28c1.91-1.18,1.79-6.77-.3-13.66-1.41-4.64-1.3-6.1.72-9.49a19.16,19.16,0,0,0,2.39-8.15,37.47,37.47,0,0,1,2-10c1.13-3.24,1.7-6.78,1.27-7.94a4.44,4.44,0,0,1,.7-3.87c.84-1,1.23-5.83.91-11.17-.49-8.3-.23-9.52,2.18-10.27a3.9,3.9,0,0,0,2.74-3.51,4.72,4.72,0,0,1,1.55-3.58c.85-.51,1.17-2.39.7-4.22s-.21-3.69.56-4.17c2.45-1.51,1.55-4.86-2.24-8.38-3.4-3.16-3.45-3.41-1.41-7.48a52.57,52.57,0,0,1,5.83-8.58c3.37-3.93,3.58-4.78,2.22-8.71-2-5.62-2-13.25-.1-16.87.8-1.54,1.53-5.48,1.61-8.72s1.16-7.1,2.53-8.71,2.48-5.48,2.6-9.14a33,33,0,0,1,2.46-11c1.21-2.53,1.92-6,1.54-7.45s.13-4.36,1.2-6.47a11.53,11.53,0,0,0,1.19-6.74c-.39-1.7.26-5.35,1.48-8.3a35.6,35.6,0,0,0,2.18-11.38c0-3.36,1.87-11,4.15-16.87,2.71-7,3.87-12.12,3.37-14.69-.48-2.42,2.08-3.34,4-8.4s5.62-2.68,5.45-6.83c-.33-8.16,7.87-2.65,11.25-1.2,1.32.57,5.69,1.16,9.77,1.31q7.38.29,10.26,2.89c2.61,2.35,1.66-1.36,5.74-3.2,3.32-1.51,11.38-2.08,30.92-2.18,14.48-.08,26.8-.52,27.25-1,2.18-2.22,10.25-.84,13.15,2.25l2.9,3.1,2.6-3.45,2.6-3.44,10.12,2.39c5.62,1.33,10.68,2,11.38,1.61s2.61,0,4.15.78c2.25,1.21,3.87,1.05,7.38-.71,4.08-2,4.64-2,6.05-.07,1.19,1.68,2.6,1.87,6.11.85a22.72,22.72,0,0,0,6.68-3.1c1.72-1.43,2.66-1.12,5.13,1.69,2.33,2.66,3.42-1.24,7.92-1.24,3.23,0,6.33-.5,7-1.12,1.61-1.61,12.86-1.27,13.9.42.48.79,2.62,1.4,4.87,1.4s4.76.93,5.73,2.11c2.38,2.91,3.71,2.67,4.65-.84l.79-3,3.73,2.88c3.47,2.68,4,2.73,7.8.77s2.62-9.78,9.79-6.23c5.06,2.51,8.52,3.42,10.19,2.69a14.57,14.57,0,0,1,8.43-.74,78,78,0,0,0,8.86.11h1.28c13,3.31,25.07,7.08,36.76,6.36,8.8-.54,15.45,3.86,24,6.14,6.3,1.69,11.79,21.72,12.83,18.54C2501.53,510.73,2493.54,444.53,2455.46,424.75Zm-471.39,588c-1-.35-1.69-2.74-1.6-5.41.24-7.59.41-8.29,2-8.29.77,0,1.41,3.23,1.41,7.17C1985.83,1011.24,1985.31,1013.16,1984.07,1012.71Z"/><path class="cls-1" d="M3170.82,876.61l1.68-2.68c-2.89.67-5,1.35-5.3,1.86s-6.51.76-13.68.49-17.93-.46-23.82-.42-10.19,5-10.7,4.25-2.1-1-3.79-.35-5.76.59-9.42,0-13.74,2.5-22.6,1.65-16.7,1.43-17.36.78a3.18,3.18,0,0,0-3.16-.5c-1.13.41-2,0-2-.84s-2.78.56-5.31-1l-8,.45c-4.68-.57-3.84,0-5.52,3.55-8.22,17.29-10.64,7.86-12.1,19-.86,6.61-1.69,14.56-1.85,17.79s-1.41,7.08-2.81,8.64a6.51,6.51,0,0,0-1.62,6.47,12.56,12.56,0,0,1,0,6.11c-.5,1.35-1.07,10-1.26,19.33-.23,11-1,18.1-2.27,20.38-3.39,6.19-1.57,48.82,2.2,51.61,1.85,1.37,2.07,3.14,1.26,10-.86,7.38-.38,10,4.08,22.7,2.78,7.87,5.06,15.16,5.06,16.17s2.18,5.06,4.92,9.13,4.92,8.12,4.92,9.14c0,3.57,8.43,8.19,14.62,8,10.2-.3,30.5-11.67,44.28-24.79,15.18-14.46,24.37-24.18,29.45-31.14a53.85,53.85,0,0,1,6.32-7.38c1.27-1,2.32-2.64,2.32-3.52s2.32-4.71,5.27-8.64a167.56,167.56,0,0,0,12.78-19c6-10.82,11.36-22.72,13.27-29.52,5.9-20.94,8-29.27,8.9-34.72.54-3.37,1.5-6.38,2.16-6.82s1.2-2.17,1.2-4c0-3.52,5-24,6.44-26.29.48-.78,1.79-7.17,2.93-14.33,2.94-18.4,3.56-22.79,2.47-24.85C3181.07,875.19,3169.32,876.83,3170.82,876.61Z"/><path class="cls-1" d="M3201.71,870.88c-.63-2.52-1.19-2.64-5.41-1.2a35.93,35.93,0,0,0-4.38,1.89,3.51,3.51,0,0,1,1.76.48,4.29,4.29,0,0,1,1.16,1.29l7.62-1A3.65,3.65,0,0,1,3201.71,870.88Z"/><path class="cls-1" d="M3213.73,865.34a1.58,1.58,0,0,1-1.76.19c-1.12-.42-2.1-1.37-2.1-2s1-1.27,2.1-1.27a1.65,1.65,0,0,1,.32,0c-1.2-1.73-3.27-1-5.15,2-1,1.67-1,3.23.25,5.2.52.84.91,1.51,1.18,2l10.18-1.3A10.25,10.25,0,0,1,3213.73,865.34Z"/><path class="cls-1" d="M3173.68,872.05l-1.18,1.88c1.6-.37,3.45-.74,5.37-1.08C3176.45,872.57,3175,872.29,3173.68,872.05Z"/><path class="cls-1" d="M3079.66,799.13c1.9.65,21.37-2,36.41-5,5.76-1.14,15-2.5,20.38-3,14.62-1.38,26.07-3.37,31.63-5.51,8-3.08,14.27-2.3,16.74-2.3,1.24,0,4.57-1.36,7.38-3l5.13-3-.91-9.28c-.5-5.06-1.27-13.11-1.69-17.71-1.39-15-7.82-32.81-16.12-44.56-1.49-2.11-3.89-3.9-5.17-3.87s-6.33,3.48-11.25,7.74-9.6,7.66-10.54,7.66-2.48,1.26-3.44,2.81-2.65,2.81-3.73,2.81c-2.39,0-17.71,14.35-17.71,16.59,0,.84-1.76,2.5-3.87,3.65a27.48,27.48,0,0,0-7.38,7.31,93.36,93.36,0,0,1-7.23,9.21,69.65,69.65,0,0,0-7,9.34,170.48,170.48,0,0,1-19.83,25.59C3077.31,799.09,3077.21,798.3,3079.66,799.13Z"/><path d="M3957.59,783.66c-6.3-6-11.43-8.39-18.74-14.06-3.41-2.65-7.24-4.17-9.8-7.65,1.74-.13-4.15-3.58-7-4.83-4.25-1.86-5.42-8.54-10-9.13-2.33-.3-5.15,1.1-6.82-.56-.81-.81-1-2.08-1.7-3-1.42-1.76-4.14-1.31-6.37-1.7-3.14-.56-17.87-7.67-19-8-4.3-1.28-9.22-3-13.76-3-1.33,0-4.85-1.28-7.94-2.88s-6.8-2.76-8.36-2.61-5.06-.71-7.88-2-6.27-1.94-7.8-1.55a4.81,4.81,0,0,1-4.56-1.48c-1.39-1.64-2.46-1.83-4.43-.77s-2.94.84-3.73-.49-6.46-2.48-15.88-3.51c-8.15-.9-21-2.5-28.75-3.59-8.85-1.24-14.89-1.5-16.44-.7-1.85,1-2.69.56-3.35-1.55-.84-2.67-4.88-4-4.88-1.54,0,.68-4.35,1-9.56.73-10.48-.58-58.33-.63-86.44-.1-15.75.3-18.39.69-20,2.95-1.13,1.55-2.79,2.26-4.08,1.76s-2.18-.32-2.18.42c0,2.2-4.36,5.62-7.17,5.62-2.06,0-2.67-.91-2.67-4v-4l-11.53.56c-19.67,1-24.06,1.4-29.94,3a24.38,24.38,0,0,1-10.82.32c-2.81-.64-5.52-.83-5.9-.42s-4.64.89-9.56,1c-14.62.43-14.77.47-15.62,3.81-.47,1.83-.22,3.85.58,4.64,2.69,2.7,1.12,4.74-4.36,5.66-4.36.74-6.14.41-7.94-1.44s-2-2.61-.35-3.6c8.57-5.29,9-7.52,1.4-7.93-4.36-.23-6.06.47-9.28,3.8-2.3,2.39-3.59,5-3.1,6.18.89,2.28-5.75,6.47-10.25,6.47-3.65,0-4.68-3.83-1.26-4.74,2.1-.56,2.7-1.73,2.39-4.68-.39-3.56-1-4-6.33-4.36-4.78-.34-6.2.13-7.45,2.46-1.06,2-1.08,2.88-.07,2.88.83,0,1.48,1,1.48,2.25s1.26,2.58,2.95,3c2,.51,2.71,1.52,2.25,3-.38,1.21-1.35,4.28-2.11,6.67-1.25,3.94-1.13,4.36,1.12,3.75,3.94-1.06,5.08,2.45,1.69,5.2-1.69,1.37-3.09,3.53-3.09,4.76,0,2.67-1,2.8-3.38.42-3.51-3.51-4.88-7.3-3.5-9.7,1.57-2.74-2.82-5.84-8.59-6l-10.33-.41-6.81-.28.91-7.38c.1-.81.18-1.51.25-2.14a3,3,0,0,0,2.58-1.25c1.41-1.7,1.18-2.11-1.21-2.11a7.73,7.73,0,0,0-1.13.09c-.07-1.18-.57-.75-1.69.63-1.51,1.86-3.16,2.34-5.83,1.68-2.11-.51-4.4-.38-5.27.3-2.08,1.63-5.48,2.44-25.86,6.08-9.14,1.64-19.43,3.51-22.92,4.17s-11.38,2.52-17.57,4.14-13.08,3.21-15.32,3.52a55.91,55.91,0,0,0-8.43,2c-2.38.81-8.93,1.7-14.41,2a43.83,43.83,0,0,0-10.14,1.44,1.92,1.92,0,0,0-3,.66,1.29,1.29,0,0,0-.19.56,14.88,14.88,0,0,0-1.57.86c-2.67,1.66-5.77,3-6.89,3a6.31,6.31,0,0,0-3.79,1.76c-1.45,1.44-2,1.33-3.17-.64s-2-2.13-5.2-.67c-5.48,2.47-8.81,6.84-6.94,9.11,0,0-5.55-1.56-8.42,0l-7.57,1.44-4.15-.9c-2.24-5.06-3.38-5.55-5.24-2.25-.78,1.38-3.66,2.45-7.46,2.76-14.48,1.19-20.48,2.92-23.66,6.8-2.08,2.53-6.45,3-7.79.84a1.59,1.59,0,0,0-2.28-.56c-.91.54-.83,1.55.23,2.81,2.06,2.49-13.71.14-13.71.14l-1.66-8.75c-1.42-1.82.08-25.92-.91-28.37a16.24,16.24,0,0,1-1.62-6.13c0-2.82-4.14-13.08-4.14-15.89,0-4.74-1.6-9.84-6.39-20.38-1.15-2.53-2.64-4.26-2.68-4.93a15.2,15.2,0,0,0-3.87-6.23c-4-3.93-17.9-39.82-68-39.82-44.07,0-65,17.28-68.39,19a144.59,144.59,0,0,0-13,7.52c-3.15,2.13-8.71,5.43-12.65,7.51-7.19,3.8-9.09,5.7-21.91,22-3.93,5-12.82,15.18-19.63,22.49s-15,16.85-18.06,21.09-6.49,8.68-7.53,9.83c-5.21,5.77-13.5,16.56-15.21,19.82-1.08,2.06-4.65,7.6-7.78,12.09-14.91,21.37-18.92,27.89-20.51,33.32a39.39,39.39,0,0,1-4.35,9.63A60.54,60.54,0,0,0,2920,843c-1.48,4.23-4.29,11.32-6.27,15.82-5.58,12.65-14.48,48.41-14.62,58.75,0,2.32-1.35,10.55-2.94,18.28-2.52,12.28-2.9,19.47-3,56.86-.1,31.48.29,43,1.48,43.36.89.31,1.61,2.74,1.61,5.41a17,17,0,0,0,2.81,8.65c1.83,2.46,3,6.74,3.41,12.23.72,10.26,1.25,13.78,2.22,14.7,2.63,2.53,5.62,8.91,5.62,12q0,14.34,33.73,44.21c8.17,7.23,41,22.43,53,24.5,19.82,3.44,44-.39,61.57-9.75,10.4-5.54,23.49-13.55,25.36-15.52,2.26-2.39,11.66-9,12.87-9.08.61,0,3.62-3.22,6.61-7s6.09-7,6.81-7,7.38-6,14.69-13.36c10.12-10.12,11.8-14.14,12.65-16.16.69-1.64,19.89-30.22,22.78-33.74,6.59-8,17.13-31.14,19.39-34.17.69-.93,3.49-7.58,5.42-11.51s14.32-31.35,15.49-39.36a45.48,45.48,0,0,1,3-11c1.09-2.2,3-11.66,4.15-21.08,1.61-12.65,7.52-24.18,7.52-25.72a28.18,28.18,0,0,1,1.54-7.38c1.26-3.65.63-11.58,1.52-18.14a9.73,9.73,0,0,1,4.28-6.95c1.91-.11,3.36-.69,3.36-1.38,0-.05,0-.09.07-.14l.16,0-.13,0c.48-.7,3.4-1,7.63-.78,6.75.37,7.63.12,7-2s.21-2.38,5.55-2.33c7.57.07,9.88-1.61,13.48-9.76,2.54-5.76,5.64-7.07,5.64-2.39,0,1.13,1.26,2,3,2,2,0,2.7.66,2.2,2-1.13,2.95,6,4.34,8.62,1.68,1.77-1.76,1.83-2.46.36-4.28s-1.34-2.34.63-3.1c1.26-.48,2.82-.25,3.3.5s5.13,1.72,10.19,2.11c7.17.54,10.48.12,14.55-1.83s5.93-2.2,8.15-1.06c2.82,1.45,2.82,1.53-.28,3.94-2.81,2.19-2.89,2.56-.77,3.38,3.8,1.47,6.33,1,6.33-1.2,0-1.08,1.26-2.35,2.81-2.81,1.94-.58,2.81-2.11,2.81-4.92,0-4.64,2.1-6.55,4.78-4.33a12.52,12.52,0,0,0,5.69,1.87l3.87.35-3.87,3c-2.25,1.76-3.42,3.7-2.81,4.64.72,1.1,2.23.42,4.71-2.11l3.65-3.72,1.22,3.65c1.55,4.64,5.66,4.9,4.51.28-.72-2.87-.32-3.25,3.62-3.37,2.39-.08,4.78-.47,5.2-.85s2.6.37,4.85,1.69c3.52,2.06,4.26,2.1,5.41.28a10.76,10.76,0,0,0,1.34-4.92c0-2.81,10.4-11.83,15.88-13.77,3.5-1.24,2.95.92-1.12,4.47s-4,5.5-.14,7.84c1.82,1.12,2.79.93,4.08-.79,3-4,7.44-4.32,14.33-1.11,5.06,2.36,7.17,2.74,9,1.61,1.32-.82,5.34-1.13,9-.71,3.94.46,6.61.21,6.61-.63,0-2,10.65-6.61,12.51-5.46a3.76,3.76,0,0,1,1.55,2.79c0,1,1.54,2.54,3.51,3.44,2.81,1.3,3.52,1.23,3.52-.35,0-3.19,9.55-4.54,13.63-1.92,1,.63,2.24.09,3-1.31,1.16-2.08,1.83-2.17,5.06-.7A20.48,20.48,0,0,0,3477,840c2.67,0,3.45-.77,3.45-3.44,0-3,.77-3.55,6-4.29a48,48,0,0,1,9.49-.42c2.81.34,3.46-.18,3.23-2.6a7.21,7.21,0,0,1,2.32-5.34c2.41-2.15,2.75-2.11,4.64.56l2,2.88,3.65-3.65c2-2,4.37-3.22,5.2-2.71,2.17,1.33,1.69,2.85-2.11,6.64-3.64,3.64-2.53,7.19,1.27,4a4.37,4.37,0,0,1,4-.74c1.26.45,3.79-.73,6-2.81,2.81-2.61,4.79-3.36,7.24-2.75,3.11.78,3.3.57,2.44-2.81-1.26-4.92,2.13-5,7-.14,4.21,4.22,4.45,5.7,1.12,7-2.15.87-2.11,1.08.42,2.13,4.36,1.81,6.33,1.62,6.33-.6,0-1.2,1.83-3.06,4.22-4.31,4.35-2.26,5.65-5,2.39-5a6.08,6.08,0,0,0-3.52,1.69c-1.26,1.26-2.07,1.3-3.23.14-2.27-2.27-.42-4.58,3-3.69,1.55.4,2.81,0,2.81-.81s1-1.55,2.11-1.55c1.52,0,1.87-1,1.26-3.51s-.3-3.52,1.41-3.52c1.26,0,2.87,1.55,3.66,3.52.9,2.25,2.51,3.51,4.49,3.51,2.67,0,2.79.25.85,1.78-3.1,2.45-4.66,9.47-2.11,9.47s8-5.91,8-8.72c0-2.25,6.19-4.63,8.43-3.25.8.49,1.5,2.83,1.62,5.36l.21,4.5.61-4.22c.88-6,2.25-6.85,7.26-4.27,2.53,1.29,5,2,5.7,1.53s3.16.24,5.69,1.55c3.8,1.95,4.7,2,5.76.35a8,8,0,0,0,1.27-3.73,1.82,1.82,0,0,1,1.83-1.75,6.3,6.3,0,0,1,3.58,1.75c1.43,1.43,2.39,1,5.13-2.39,3-3.65,3.79-3.95,6.89-2.53,2,.91,4.53,3.8,5.83,6.61a41.59,41.59,0,0,0,2.53,5c.12,0,2.32.6,4.85,1.32,5.5,1.56,8.74-.9,8.77-6.66,0-4.36,4.8-11.38,6.5-9.56.69.74.47,1.52-.51,1.87-1.83.66-2.48,8.87-.7,8.83a7.85,7.85,0,0,0,2.95-1.28,4.38,4.38,0,0,1,4.64.31c2.79,1.65,4.46.39,8.09-6.07,1-1.8,1.61-1.73,4,.42,1.82,1.64,3.13,2,3.72,1.05s1.62-.77,3,.63c3.56,3.56,10.6,2.25,7.57-1.4-2.1-2.53,3.34-9.13,5.65-6.86,1.31,1.29,1.32,2.78.05,6.72-2,6-1.09,9.28,2.48,9.28,1.95,0,2.53-1.13,2.53-4.92,0-6.19,1.14-7.27,5.34-5,1.83,1,4.08,1.36,4.92.85,2.51-1.52,8.31.8,9,3.61a3.75,3.75,0,0,0,3.77,2.67c1.83,0,2.82-.74,2.42-1.82-.92-2.53,1.57-6.61,4.05-6.61,1.8,0,2.06,1,1.33,4.92-.86,4.64-.7,4.92,2.81,4.92,3.08,0,4.11-1,5.91-5.62s2.83-5.63,5.9-5.63c2.11,0,4.46-.73,5.41-1.68,2.08-2.08,3.66,1.82,2.74,6.74s1,4.22,4.47-1.4c1.63-2.67,3.84-5.14,5-5.59,3-1.12,13.36,4.21,13.36,6.85a2.33,2.33,0,0,0,2.53,2.11c2.73,0,5.9-5.2,5.9-9.7,0-2.53,4.65-4.9,6.33-3.23s.56,5.9-1.41,5.9c-2.84,0-2.67,1.9.42,4.68,3.38,3,4.5,2.91,4.5-.46a5.54,5.54,0,0,1,2.81-4.22c1.55-.85,2.81-2.43,2.81-3.51,0-2.39,5.07-5.45,7-4.24.78.48,1.41,2.69,1.41,4.94s.63,4.46,1.4,4.92,1.41,2.11,1.41,3.52c0,3.37,4.92,3.93,6.16.7.67-1.74,2-2,5.79-1.35,4.94.91,5.07.79,5.46-5,.21-3.11,3.77-2.67,5.63.71.86,1.54,1.71,3.09,1.91,3.44s1.28-.7,2.46-2.39l2.11-3,3.58,3.58c2.79,2.79,4.43,3.36,7.38,2.57,6.47-1.73,16.08-.76,21,2.13,2.67,1.58,5.92,2.82,7.38,2.82a6.16,6.16,0,0,1,4.14,1.9c1,1.23,4.29,1.8,9.35,1.62,6.89-.25,8.25.19,11.6,3.72,2.13,2.25,4.81,4,6.11,4a6.42,6.42,0,0,1,4.15,2.18,4.72,4.72,0,0,0,4.36,1.54c1.64-.41,3.07.36,4.07,2.18.87,1.58,3.52,3.68,6,4.79,5.48,2.4,9.27,5.33,9.27,7.16,0,.72,1.83,2.64,4.22,4.43,3.16,2.37,4.23,4.29,4.29,7.66a14.32,14.32,0,0,0,2.11,7.24c1.12,1.52,2,5.69,2,9.35,0,7.87-2.8,20.94-4.49,20.94-.64,0-1.13,1.76-1.13,4a9.66,9.66,0,0,1-2.74,6.46,20.19,20.19,0,0,0-4.36,7.31c-1.26,3.8-24.67,17.36-25.93,17.36-.47,0-2.39,1.83-4.29,4.08-3.94,4.66-16.52,11.38-21.3,11.38-4.07,0-10.26,3.82-10.26,6.33,0,2.14,7.73,5.06,10.55,4a4.71,4.71,0,0,1,3.79.39c2.25,1.4,8.41.78,10.26-1,.71-.69,3.8-1.23,7-1.23s6.35-.59,7.1-1.34,4.78-1.71,9-2.18,9.27-2,11.24-3.37a111.92,111.92,0,0,1,11.74-6.47,58.79,58.79,0,0,0,9.83-6.32c3.31-2.53,4.89-2.36,8.35-4.4,1.46-.86,6.36-2.37,7.78-3.89,10.36-11.11,21-23.06,22.38-50.82C4002.17,810.8,3959.08,785.07,3957.59,783.66Zm-809.38-63.57c1-1.55,2.51-2.81,3.44-2.81s5.62-3.41,10.54-7.66,9.92-7.7,11.25-7.74,3.68,1.76,5.17,3.87c8.3,11.75,14.73,29.52,16.12,44.56.42,4.6,1.19,12.65,1.69,17.71l2.11,13.53-6.61-.18a15,15,0,0,1-7.1,2c-2.47,0-8.73-.78-16.74,2.3-5.56,2.14-17,4.13-31.63,5.51-5.38.51-14.62,1.87-20.38,3-15,3-34.51,5.62-36.41,5-2.45-.83-2.35,0,1.82-4.54A170.48,170.48,0,0,0,3101.31,769a69.65,69.65,0,0,1,7-9.34,93.36,93.36,0,0,0,7.23-9.21,27.48,27.48,0,0,1,7.38-7.31c2.11-1.15,3.87-2.81,3.87-3.65m-97,163.33c1.46-11.11,3.88-1.68,12.1-19,1.68-3.52.84-4.12,5.52-3.55l8-.45c2.53,1.56,5.31.16,5.31,1s.84,1.25,2,.84a3.18,3.18,0,0,1,3.16.5c.66.65,8.51-1.62,17.36-.78s19-2.23,22.6-1.65,7.81.59,9.42,0,3.26-.47,3.79.35,4.79-4.21,10.7-4.25,16.65.15,23.82.42,43.81-3.27,41.32-2.94c1.09,2.06.47,6.45-2.47,24.85-1.14,7.16-2.45,13.55-2.93,14.33-1.43,2.3-6.44,22.77-6.44,26.29,0,1.83-.52,3.57-1.2,4s-1.62,3.45-2.16,6.82c-.87,5.45-3,13.78-8.9,34.72-1.91,6.8-7.26,18.7-13.27,29.52a167.56,167.56,0,0,1-12.78,19c-3,3.93-5.27,7.74-5.27,8.64s-1.05,2.48-2.32,3.52a53.85,53.85,0,0,0-6.32,7.38c-5.08,7-14.27,16.68-29.45,31.14-13.78,13.12-34.08,24.49-44.28,24.79-6.19.19-14.62-4.43-14.62-8,0-1-2.18-5.06-4.92-9.14s-4.92-8.12-4.92-9.13-2.28-8.3-5.06-16.17c-4.46-12.65-4.94-15.32-4.08-22.7.81-6.89.59-8.66-1.26-10-3.77-2.79-5.59-45.42-2.2-51.61,1.24-2.28,2-9.42,2.27-20.38.19-9.28.76-18,1.26-19.33a12.56,12.56,0,0,0,0-6.11,6.51,6.51,0,0,1,1.62-6.47M3370.81,786c-.37-.38-.27-1.83.2-3.1,1.12-3,4.72-3.06,4.72-.14C3375.73,784.91,3372.09,787.31,3370.81,786Zm31.07,31.2a3.42,3.42,0,0,0-2.77,2.11c-1,2.53-3.7,2.84-3.7.42,0-2.67,4.39-6.61,6.47-5.81,1.12.43,2,1.29,2,2S3403,817.24,3401.88,817.24Zm15.48.56c-.3,8.58-.3,8.58-5.36,9.8-2.39.58-4.22.21-5.28-1.08-1.79-2.16.22-4.47,2.61-3,2.11,1.3,4.06-3.76,3.34-8.68-.57-3.93-.24-4.64,2.14-4.64S3417.59,811.06,3417.36,817.8Zm16.71,10.06c-10.12-.93-11.48-2.88-6-8.65,3.81-4,6-3.51,5.7,1.26-.2,2.68.55,3.72,3.11,4.36C3442.7,826.29,3440.68,828.47,3434.07,827.86Zm11.1-15.4a13,13,0,0,0-3.51-.84c-.7,0-1.27-1.27-1.27-2.81,0-2,1-2.81,3.24-2.81,2.48,0,3.3.84,3.51,3.65S3446.9,813.11,3445.17,812.46Zm9,10.4c-3,0-4.71-3.09-3.46-6.32.82-2.11,8-3.12,8-1.13C3458.6,819.49,3456.55,822.86,3454.17,822.86Zm36.41-32.08c5.62,2,5.94,3.62.84,4.2-4.64.52-5.91,4.75-1.83,6.06,3.66,1.17,3.75,3.55.14,3.55s-6-3.23-6.62-8.57C3482.27,788.83,3483.27,788.13,3490.58,790.78Zm-17-26.53a17.58,17.58,0,0,1,5.9,1.47c1,.6,2.07.07,2.55-1.19,1-2.67,3.33-3,3.26-.42-.09,3.09-3.61,6.74-6.51,6.74-1.58,0-4.27-1.54-6.12-3.51l-3.3-3.51Zm-6.45,56.08a25.06,25.06,0,0,0-.86-4c-.6-2.13.28-4.05,2.95-6.5,3.66-3.34,7.73-3.66,7.73-.6C3476.94,813.31,3467.2,824.33,3467.12,820.33Zm30.49-5.48c-.32,1-2.18,1.87-4.29,2.11s-3.73,1.31-3.73,2.46a2.41,2.41,0,0,1-2.6,2,46.68,46.68,0,0,0-7,.86c-5.06,1-5.92-1.05-2.49-5.92,1.73-2.46,3.62-3,11.35-3.09C3495.36,813.21,3498,813.68,3497.61,814.85Zm6.18-.42c-2.67,0-5.84-3.84-5-6,1.13-3,3.87-3.14,6.12-.43C3506.42,809.79,3505.62,814.43,3503.79,814.43Zm-.29-32c-1.26,2-5.47.42-5.47-2.11,0-1,2-3.35,4.42-5.13,3.52-2.62,5-3,7-1.73,3.08,1.91,5.69,1.1,8.28-2.56a6.83,6.83,0,0,1,4.72-2.81c2.53,0,2.57.2.43,2.6a9.82,9.82,0,0,0-2.32,5.63c0,1.68-.44,3.05-1,3.1C3509.13,780.2,3504.29,781.11,3503.5,782.38Zm5.63,15.18c-1.69,0-2.31-5.54-.7-6.2,3.09-1.28,5.06-.89,5.06,1S3510.78,797.56,3509.13,797.56Zm23.27,13.5c-1.57-.63-3.59.08-5.56,1.94-3.65,3.47-10.21,3.33-12.43-.26-2-3.24-.5-4.25,3.86-2.57,3.71,1.43,4.37.75,3.75-3.89-.17-1.32,1.45-1.71,5.81-1.41,5.2.36,6.11.89,6.53,3.8C3534.75,811.34,3534.34,811.84,3532.4,811.06Zm10-5.77c-3.76,4.08-6.77,4.62-5.44,1a6.22,6.22,0,0,1,6.29-4.5C3545.3,801.78,3545.16,802.34,3542.44,805.29Zm11.11-54.1c-2,.75-4,2.36-4.44,3.5a2.94,2.94,0,0,1-5.57,0c-.56-1.46-1.94-1.83-4.47-1.22-5.76,1.41-7.31,3.18-7.31,8.39,0,5.06-1.94,6-5.62,2.61-1.84-1.68-3-1.76-6.54-.43-3.79,1.43-4.73,1.21-8.15-1.9-3.08-2.8-4-5.06-4.36-11.11-.59-8.85.65-11.47,5.13-10.85,4.08.56,5.1,4.5,2,7.62-2.39,2.39-3.06,11.81-.84,11.81.77,0,2.1-1.27,3-2.81a5.56,5.56,0,0,1,4.5-2.81c2.61,0,2.86-.57,2.15-4.92-1-6.19,0-9.06,3.05-9.19,1.27,0,4.08-1.22,6.47-2.7,5.34-3.3,7-3.41,9.25-.62,3.41,4.12-.26,10.15-7.57,12.42-1.4.44-2.12,1.48-1.61,2.34.66,1.12,1.33,1.12,2.46,0,.83-.84,4.42-1.55,7.8-1.55,4.21,0,6.8-.76,7.94-2.32a3.59,3.59,0,0,1,4.08-1.42C3558.2,747.31,3557.63,749.65,3553.55,751.19Zm6,35.41c-.9,2.67-3.93,3.1-3.93.56a2.22,2.22,0,0,1,2.25-2.25C3559.17,784.91,3559.91,785.65,3559.59,786.6Zm-.28-60c-2.53,2.53-4.59,2.63-5.44.28-.4-1.13-1.12-1.21-2.15-.24-2.53,2.37-11.52.8-11.52-2,0-1.72,1.4-2.3,5.9-2.46,3.23-.12,6.16-.94,6.47-1.83a1.59,1.59,0,0,1,2.18-.84c.85.41,2.74,1.16,4,1.6C3561.7,722.1,3561.9,724,3559.31,726.58Zm18.08,76.75a3.85,3.85,0,0,1-2.9,1.26c-2.1,0-2.8-4.34-1-6.15C3574.84,797.12,3578.43,801.64,3577.39,803.33Zm1.69-50.05c-1.23,3.21-7.92-.7-7.94-4.63,0-2.71.61-3.17,3.85-2.82,2.39.26,4.05,1.39,4.35,3A9.52,9.52,0,0,1,3579.08,753.28Zm11.16,14.9a12.27,12.27,0,0,0-2.25,5.63c0,1.33-1.55,3.39-3.52,4.67-4.21,2.74-4.92,2.76-4.92.11a2.13,2.13,0,0,1,2-2.11c1.27,0,2.42-2,3-5.2,1-5.49,4.58-9.54,6.6-7.56C3591.94,764.41,3591.51,766.36,3590.24,768.18Zm48.3-3.65c-3,3.23-7,4.66-7,2.53s4.78-6,7.45-6S3641.69,761.16,3638.54,764.53Z"/><path class="cls-1" d="M3370.81,786c1.28,1.27,4.92-1.13,4.92-3.24,0-2.92-3.6-2.81-4.72.14C3370.54,784.21,3370.44,785.66,3370.81,786Z"/><path class="cls-1" d="M3558.75,721.08c-1.26-.44-3.15-1.19-4-1.6a1.59,1.59,0,0,0-2.18.84c-.31.89-3.24,1.71-6.47,1.83-4.5.16-5.9.74-5.9,2.46,0,2.81,9,4.38,11.52,2,1-1,1.75-.89,2.15.24.85,2.35,2.91,2.25,5.44-.28S3561.7,722.1,3558.75,721.08Z"/><path class="cls-1" d="M3539.07,753.47c2.53-.61,3.91-.24,4.47,1.22a2.94,2.94,0,0,0,5.57,0c.42-1.14,2.47-2.75,4.44-3.5,4.08-1.54,4.65-3.88,1.27-5.16a3.59,3.59,0,0,0-4.08,1.42c-1.14,1.56-3.73,2.32-7.94,2.32-3.38,0-7,.71-7.8,1.55-1.13,1.12-1.8,1.12-2.46,0-.51-.86.21-1.9,1.61-2.34,7.31-2.27,11-8.3,7.57-12.42-2.3-2.79-3.91-2.68-9.25.62-2.39,1.48-5.2,2.65-6.47,2.7-3.09.13-4,3-3.05,9.19.71,4.35.46,4.92-2.15,4.92a5.56,5.56,0,0,0-4.5,2.81c-.85,1.54-2.18,2.81-3,2.81-2.22,0-1.55-9.42.84-11.81,3.13-3.12,2.11-7.06-2-7.62-4.48-.62-5.72,2-5.13,10.85.39,6.05,1.28,8.31,4.36,11.11,3.42,3.11,4.36,3.33,8.15,1.9,3.52-1.33,4.7-1.25,6.54.43,3.68,3.35,5.62,2.45,5.62-2.61C3531.76,756.65,3533.31,754.88,3539.07,753.47Z"/><path class="cls-1" d="M3571.14,748.65c0,3.93,6.71,7.84,7.94,4.63a9.52,9.52,0,0,0,.26-4.49c-.3-1.57-2-2.7-4.35-3C3571.75,745.48,3571.12,745.94,3571.14,748.65Z"/><path class="cls-1" d="M3631.56,767.06c0,2.13,4,.7,7-2.53s3.17-3.52.47-3.52S3631.56,764.89,3631.56,767.06Z"/><path class="cls-1" d="M3485.28,764.11c.07-2.55-2.24-2.25-3.26.42-.48,1.26-1.6,1.79-2.55,1.19a17.58,17.58,0,0,0-5.9-1.47l-4.22-.42,3.3,3.51c1.85,2,4.54,3.51,6.12,3.51C3481.67,770.85,3485.19,767.2,3485.28,764.11Z"/><path class="cls-1" d="M3579.55,778.59c0,2.65.71,2.63,4.92-.11,2-1.28,3.52-3.34,3.52-4.67a12.27,12.27,0,0,1,2.25-5.63c1.27-1.82,1.7-3.77,1-4.46-2-2-5.56,2.07-6.6,7.56-.61,3.23-1.76,5.2-3,5.2A2.13,2.13,0,0,0,3579.55,778.59Z"/><path class="cls-1" d="M3498,780.27c0,2.53,4.21,4.15,5.47,2.11.79-1.27,5.63-2.18,16-3,.55,0,1-1.42,1-3.1a9.82,9.82,0,0,1,2.32-5.63c2.14-2.4,2.1-2.6-.43-2.6a6.83,6.83,0,0,0-4.72,2.81c-2.59,3.66-5.2,4.47-8.28,2.56-2-1.25-3.44-.89-7,1.73C3500.06,776.92,3498,779.29,3498,780.27Z"/><path class="cls-1" d="M3555.66,787.16c0,2.54,3,2.11,3.93-.56.32-1-.42-1.69-1.68-1.69A2.22,2.22,0,0,0,3555.66,787.16Z"/><path class="cls-1" d="M3490.58,790.78c-7.31-2.65-8.31-1.95-7.47,5.24.62,5.34,3.12,8.57,6.62,8.57s3.52-2.38-.14-3.55c-4.08-1.31-2.81-5.54,1.83-6.06C3496.52,794.4,3496.2,792.82,3490.58,790.78Z"/><path class="cls-1" d="M3509.13,797.56c1.65,0,4.36-3.23,4.36-5.2s-2-2.28-5.06-1C3506.82,792,3507.44,797.56,3509.13,797.56Z"/><path class="cls-1" d="M3574.49,804.59a3.85,3.85,0,0,0,2.9-1.26c1-1.69-2.55-6.21-3.88-4.89C3571.69,800.25,3572.39,804.59,3574.49,804.59Z"/><path class="cls-1" d="M3542.44,805.29c2.72-2.95,2.86-3.51.85-3.51a6.22,6.22,0,0,0-6.29,4.5C3535.67,809.91,3538.68,809.37,3542.44,805.29Z"/><path class="cls-1" d="M3514.41,812.74c2.22,3.59,8.78,3.73,12.43.26,2-1.86,4-2.57,5.56-1.94,1.94.78,2.35.28,2-2.39-.42-2.91-1.33-3.44-6.53-3.8-4.36-.3-6,.09-5.81,1.41.62,4.64,0,5.32-3.75,3.89C3513.91,808.49,3512.4,809.5,3514.41,812.74Z"/><path class="cls-1" d="M3440.39,808.81c0,1.54.57,2.81,1.27,2.81a13,13,0,0,1,3.51.84c1.73.65,2.19,0,2-2.81s-1-3.65-3.51-3.65C3441.38,806,3440.39,806.85,3440.39,808.81Z"/><path class="cls-1" d="M3466.26,816.33a25.06,25.06,0,0,1,.86,4c.08,4,9.82-7,9.82-11.1,0-3.06-4.07-2.74-7.73.6C3466.54,812.28,3465.66,814.2,3466.26,816.33Z"/><path class="cls-1" d="M3503.79,814.43c1.83,0,2.63-4.64,1.12-6.47-2.25-2.71-5-2.53-6.12.43C3498,810.59,3501.12,814.43,3503.79,814.43Z"/><path class="cls-1" d="M3406.72,826.52c1.06,1.29,2.89,1.66,5.28,1.08,5.06-1.22,5.06-1.22,5.36-9.8.23-6.74-.05-7.59-2.55-7.59s-2.71.71-2.14,4.64c.72,4.92-1.23,10-3.34,8.68C3406.94,822.05,3404.93,824.36,3406.72,826.52Z"/><path class="cls-1" d="M3395.41,819.77c0,2.42,2.73,2.11,3.7-.42a3.42,3.42,0,0,1,2.77-2.11c1.12,0,2-.54,2-1.26s-.85-1.59-2-2C3399.8,813.16,3395.41,817.1,3395.41,819.77Z"/><path class="cls-1" d="M3480,822.32a46.68,46.68,0,0,1,7-.86,2.41,2.41,0,0,0,2.6-2c0-1.15,1.62-2.22,3.73-2.46s4-1.15,4.29-2.11c.39-1.17-2.25-1.64-8.72-1.54-7.73.11-9.62.63-11.35,3.09C3474.11,821.27,3475,823.32,3480,822.32Z"/><path class="cls-1" d="M3454.17,822.86c2.38,0,4.43-3.37,4.51-7.45,0-2-7.15-1-8,1.13C3449.46,819.77,3451.15,822.86,3454.17,822.86Z"/><path class="cls-1" d="M3434.07,827.86c6.61.61,8.63-1.57,2.81-3-2.56-.64-3.31-1.68-3.11-4.36.35-4.77-1.89-5.27-5.7-1.26C3422.59,825,3424,826.93,3434.07,827.86Z"/><path d="M3476.66,734.42c3.8-2,4-6.54.28-8.47-2.25-1.19-2.64-1.06-2,.63a2.3,2.3,0,0,1-1.4,3c-2.45,1-2.66,1.93-1,4.6C3473.44,735.56,3474.41,735.62,3476.66,734.42Z"/><path d="M3296.57,855.76c-.55,1.4-.14,1.85,1.22,1.33,1.12-.42,1.7-1.34,1.28-2C3298,853.23,3297.5,853.37,3296.57,855.76Z"/><path d="M3285.07,859.35c-2.25.88-2.32,1.18-.42,1.89,2.95,1.11,8.38-.35,7.36-2C3291.12,857.85,3288.86,857.87,3285.07,859.35Z"/><path d="M3053.69,200.18c-.69-2.65-1.07-12.16-.84-21,.38-14.48,0-17.35-3.38-27.55-2.25-6.75-3.52-13.16-3.13-15.75.7-4.55-2-14.61-6.77-25.16A56,56,0,0,1,3036,99.19c-.55-3.24-1.51-6.11-2.18-6.54s-1.26-2.18-1.33-3.87-2-5.9-4.22-9.41-4.88-8-5.88-10c-1.62-3.29-19.32-24.89-44.61-24.46-24,.4-45.52,17.52-49.28,23.19a120.83,120.83,0,0,1-9,11.25c-9.15,10.12-38.76,49.7-41,54.82a128.58,128.58,0,0,1-7.52,11.24c-12.88,17.85-19.3,27.6-24.55,37.25-9.63,17.71-10.7,19.63-13.41,23.9-1.5,2.36-4.47,7.31-6.76,11.24l-11.8,20.39c-4.24,7.31-9.67,16.85-12,21.08s-6.55,11.81-9.35,16.87S2788,286.3,2788,287.55s-1.43,4.35-3.24,7a52.27,52.27,0,0,0-7.5,18.14c-.74,3.84-12,33.17-15.36,40.06-3.67,7.47-21.72,64.1-26,81.53-2.27,9.27-5.5,21.61-7.16,27.41s-3.85,14.68-4.85,19.68-2.76,12.58-3.93,16.86c-4.73,17.43-7.62,30.21-7,31.21.31.54-.74,5.34-2.31,10.54s-3.46,11.48-4.15,13.78-2.24,9.28-3.44,15.46-4.09,19.82-6.4,30.22-4.79,23.74-5.48,29.52-2.59,16.87-4.22,24.6-3.23,16.27-3.58,19-1.23,7.45-2,10.54a134.66,134.66,0,0,0-2.18,15.25c-.47,5.34-1.36,10.63-2,11.88-1.25,2.42-4.12,21.36-5,33.31-.3,3.87-1.52,13.36-2.71,21.09-2.11,13.63-5.21,39.81-5.92,49.9-.19,2.71-1.13,12.79-2.1,22.49s-1.63,19.46-1.48,21.79a43.62,43.62,0,0,1-1.23,10.54c-2.34,9.81-3.1,21.93-3.51,56.23-.47,38.79,1.52,88.93,4.25,103.24a115,115,0,0,1,2,16.66,64.18,64.18,0,0,0,1.41,12c.77,3.3,2.38,11.31,3.58,17.92.86,4.92,6.24,29,6.91,29s1.15,1.69,1.09,3.79c-.29,11.53,7.93,25.47,6.56,30.51-5,18.42,12.33,26.59,18.51,28.47,8.09,2.46,13.81.28,20-1.76,6.47-2.12,5.67-1.43,12.18-3.68,11.48-4,63.09-16.45,60.53-32.9-.57-3.65.18-6.92.53-6.08-.16-.78-.46-1.52-1-1.64a5.7,5.7,0,0,1,1.64-4c5-4.07,2.2-3,1.87-11.71-.21-5.66-.7-9.48-4.24-13.91-.88-1.1.49-2.1,0-3.43-.85-2.43-.48-5.43,0-8,.86-4.51,5.2-8.09,3.17-12,1.28-.33.66-.5,0-.51.19-5.93-4.35-15.27-6.28-20.68.76-.76,1.5-9.13,1.62-14.05s-.53-17.07.27-17.6c1-.67.84-2.25-.49-4.92a24.85,24.85,0,0,1-2.25-8.16c-.37-5.76-6.38-26.63-4.43-30.71,2-4.23-.7-51.66,1.69-56.16,2.17-4.1,2.22-5.2.42-9.55-2-4.92-2.47-16.18-.75-19,.52-.83,1-4.08,1-7,.1-11.8-.49-15.06-.74-15.81.15.1.47.09,1-.54,3.56-4,7.36-18.72,3.26-26.31-3.26-6-2.83-15.86-.6-17.24.84-.52,2.18-12.94,1.76-13.7s1.26-21.08,3.85-21.08c1.83,0,8.91-8.92,11.76-14a15.24,15.24,0,0,1,3.8-4.07c1.38-1,3.73-4.5,5.2-7.73s5.54-9,9.2-12.94c5.76-6.18,12.16-16.77,12.16-20.1,0-.69,1.27-2.4,2.81-3.79s2.82-3.61,2.82-4.92,1.16-3.94,2.53-5.77a49.06,49.06,0,0,0,4.21-6.88,84.35,84.35,0,0,1,4.43-7.73c1.54-2.37,4.38-7.31,6.47-11.25a85.14,85.14,0,0,1,5.4-9.14c2.91-3.65,9.29-16.39,9.29-18.55,0-1.16,1.26-3.73,2.81-5.69s2.81-4.57,2.81-5.77a6.46,6.46,0,0,1,1.76-4c.95-1,3.48-5.35,5.55-9.56s4.72-9.33,5.82-11.25c2.76-4.78,12.17-25.21,12.17-26.42,0-.56,2-4.08,4.57-8a88.51,88.51,0,0,0,7.24-14c1.49-3.94,3.44-8,4.43-9.14s4.13-7.17,7-13.35c11.21-23.9,21.12-43.67,22.13-44.12.53-.24,1-1.43,1-2.55,0-2.5,10.63-24.46,15.1-31.21,1.77-2.67,3.17-5.77,3.17-7s1.53-4.49,3.44-7.3a70.47,70.47,0,0,0,6.33-13.22c1.59-4.5,4.14-9.51,5.69-11.17a10.63,10.63,0,0,0,2.81-6.05c0-1.68.56-3.37,1.27-3.8,2-1.26,12.79-23.68,12.79-26.63a9.1,9.1,0,0,1,2-4.92c1.1-1.25,3.62-6.61,5.69-12.09s4.32-10.93,5.06-12.3a12.36,12.36,0,0,0,1.34-5,6.31,6.31,0,0,1,1.4-3.93c.78-.78,2.08-4.5,2.89-8.3,3.22-14.9,3.76-16.93,5.37-20a45,45,0,0,0,3-9.21c.7-3.3,3.12-11.31,5.41-17.92s4.62-14.14,5.2-16.87a24,24,0,0,1,3.66-8.22c1.43-1.83,2.31-3.77,2-4.36s.26-6.39,1.34-12.86,2.25-14.13,2.6-16.94a22.76,22.76,0,0,1,1.81-7c1.54-2.38,1.93-6.19,2-19.4,0-5.77.63-11.25,1.32-12.09C3054.5,205.59,3054.5,203.28,3053.69,200.18Zm-25.31,69.65c-.77,3.1-1.72,7.52-2.12,9.84-5.63,33-15.77,67.19-27.93,94-2.48,5.48-6.07,13.47-8,17.71s-5.7,12.09-8.54,17.57c-9.08,17.58-17,32.32-18.07,33.74-2.33,3.06-35.09,68.32-40.57,80.83-3.2,7.31-8.3,18.12-11.26,23.89s-9,17.5-13.42,25.94-8.65,16.15-9.42,17.08c-2.05,2.45-17.42,31.9-20.91,40.06a56.12,56.12,0,0,1-2.71,5.48,62.11,62.11,0,0,0-2.81,5.62c-.85,1.93-3,6-4.78,9.14s-5.46,9.7-8.22,14.76-6.43,11.64-8.22,14.76-4.41,7.83-5.84,10.54-5.17,9-8.36,14.06-7.61,12.58-9.91,16.86a93.5,93.5,0,0,1-10.4,14.76c-3.51,3.94-6.26,7.5-6.26,8.09s-1,1-2.25,1c-1.83,0-1.92-.39-.5-2.11,2.06-2.49,6.15-30.29,6.41-44.21.23-13.07,6.18-25.42,6.18-27.48a14.14,14.14,0,0,1,2.81-7.38c1.66-2.1,2.47-4.68,2-6.25a6.1,6.1,0,0,1,1.05-4.92c1.29-1.52,2-7.24,2.18-17.64.16-8.72,1.2-18.53,2.39-22.63a111.17,111.17,0,0,0,2.88-12.87c.44-3.14,1.36-8.71,2.11-12.65a141.69,141.69,0,0,0,1.41-20c.06-11.38,8.15-24,7.4-28-.17-.86.63-4.22,1.81-7.59a40.53,40.53,0,0,0,2.1-11,30.17,30.17,0,0,1,2.82-10.83c1.83-3.81,3-9.56,3.3-16.58.27-5.91,1.28-11.71,2.25-12.87a6.92,6.92,0,0,0,.91-5.55c-.63-2.57,7.39-40.28,8.68-42a32.38,32.38,0,0,0,3.06-7c1-2.95,8.81-21.43,7.77-27.9-.56-3.51-.19-5.57,1.23-6.75a4.8,4.8,0,0,0,1.33-4.35c-.39-1.49.64-4.57,2.32-7s2.62-4.29,2.11-4.29-.33-.77.42-1.76,2.08-4.77,3-8.57a89.2,89.2,0,0,1,4.34-12.72c4-9,8.45-23,8.45-26.85,0-2,6-8.57,9.44-23.19a24.94,24.94,0,0,1,3.43-7.24c1.47-2.11,2.6-4.37,2.6-5.2s1.46-4.15,3.3-7.52a55,55,0,0,0,4.36-10.26,18.53,18.53,0,0,1,2.81-6.33c1-1.17,2.16-4.36,2.67-7.17a20.23,20.23,0,0,1,3.72-8.29,12.78,12.78,0,0,0,2.82-7.1c0-2.11.83-4.56,1.82-5.38,2.15-1.78,12.23-21.4,12.23-23.79,0-3.23,9-11.24,9.64-13.07,3.76-10.12,7.57-28.38,10.66-28.38,1.41,0,2.53-.57,2.53-1.27s1.55-2.72,3.52-4.57,3.51-4.07,3.51-5.06.5-1.75,1.13-1.75c1.39,0,8.13-10,9.4-13.92a12.1,12.1,0,0,1,4.3-4.92c2-1.29,3.44-3.6,3.44-5.41s1.24-5.48,2.82-8.44,3.79-9.56,4.92-10a3.65,3.65,0,0,0,2.1-3.3,6,6,0,0,1,2.82-4.29c1.54-1,2.81-2.35,2.81-3.09a21.9,21.9,0,0,1,1.4-5.06c1.26-3.32,3-.41,7,.34a44,44,0,0,1,8.37,2.56c5.69,2.58,12.47,21.2,16.76,46.08C3039.82,167.41,3034.05,246.92,3028.38,269.83Z"/><path d="M2793,1095.7c0,.17,0,.34,0,.55C2793,1096.79,2793,1096.38,2793,1095.7Z"/><path d="M2792.84,1094.61a9.44,9.44,0,0,1,.15,1.09A3.63,3.63,0,0,0,2792.84,1094.61Z"/><path class="cls-2" d="M1158.62,1370.77a17.83,17.83,0,0,1-5.15,13.09,19,19,0,0,1-26.11,0,17.82,17.82,0,0,1-5.14-13.09,17.58,17.58,0,0,1,5.14-13,19.26,19.26,0,0,1,26.11,0A17.59,17.59,0,0,1,1158.62,1370.77Z"/><path class="cls-2" d="M1253.6,1310.23h52.32q21.39,0,30.42,12.68a29.19,29.19,0,0,1,5.31,17.3q0,11.44-6.51,18.78a31.75,31.75,0,0,1-9.72,7.08q9.32,3.54,13.92,8,8.16,7.9,8.16,21.83a33.57,33.57,0,0,1-7.38,21.16q-11,14.17-35,14.17H1253.6Zm46.19,51.15q10.49,0,16.31-2.89,9.17-4.52,9.16-16.3t-9.74-16q-5.49-2.31-16.31-2.31h-29.55v37.48Zm5.54,55.84q15.21,0,21.7-8.73a21.82,21.82,0,0,0,4.08-13.34q0-13.19-11.89-18-6.33-2.55-16.72-2.55h-32.84v42.58Z"/><path class="cls-2" d="M1382.88,1310.23h16.55v121h-16.55Z"/><path class="cls-2" d="M1438.69,1310.23h16.39v106.58h60.7v14.41h-77.09Z"/><path class="cls-2" d="M1545.15,1310.23h16.39v106.58h60.7v14.41h-77.09Z"/><path class="cls-2" d="M1655.32,1310.23h16.55v121h-16.55Z"/><path class="cls-2" d="M1746.3,1310.23h18.53l43.9,121h-18L1778.5,1395h-47.85l-13.1,36.24h-16.8Zm26.93,71.41-18.37-53.45-19.52,53.45Z"/><path class="cls-2" d="M1838.26,1310.23h55q13.59,0,22.4,4,16.74,7.74,16.75,28.58,0,10.86-4.49,17.79a32.59,32.59,0,0,1-12.56,11.12q7.08,2.88,10.66,7.57t4,15.24l.57,16.23a49.68,49.68,0,0,0,1.16,10.29c1,3.84,2.74,6.32,5.27,7.41v2.72h-20.1a15.1,15.1,0,0,1-1.32-4,77.9,77.9,0,0,1-.82-9.56l-1-20.18q-.55-11.85-8.56-15.89-4.56-2.24-14.32-2.23h-36.25v51.89h-16.4Zm53.24,55.43q11.2,0,17.74-4.61t6.53-16.64q0-12.93-9.13-17.63-4.89-2.46-13.06-2.47h-38.92v41.35Z"/><path class="cls-2" d="M1971.5,1310.23h48.36q24.62,0,38.2,17.71,12.11,16,12.11,40.93,0,19.28-7.16,34.84-12.6,27.51-43.32,27.51H1971.5Zm45.14,107a43.49,43.49,0,0,0,13.37-1.73,29.5,29.5,0,0,0,15.3-12.35q4.76-7.34,6.85-18.78a73.76,73.76,0,0,0,1.2-12.69q0-22.49-8.73-34.92t-28.15-12.44h-28.43v92.91Z"/><path class="cls-2" d="M2115.93,1392.18q.56,10.3,4.68,16.72,7.84,12,27.69,12a47.3,47.3,0,0,0,16.18-2.64q14.13-5.1,14.12-18.28,0-9.88-6-14.09t-19-7.16l-15.88-3.71q-15.55-3.63-22-8-11.17-7.57-11.17-22.65,0-16.31,11-26.77t31.1-10.46q18.51,0,31.46,9.19t12.94,29.36h-15.4q-1.18-9.72-5-14.91-7.2-9.46-24.4-9.47-13.91,0-20,6.09a19.45,19.45,0,0,0-6.08,14.17q0,8.9,7.18,13,4.71,2.64,21.31,6.59l16.44,3.87q11.88,2.81,18.35,7.66,11.18,8.49,11.17,24.63,0,20.1-14.25,28.74t-33.14,8.65q-22,0-34.46-11.53t-12.2-31Z"/><path class="cls-2" d="M2301.38,1349.11a29.25,29.25,0,0,1-2.59-11.62,26,26,0,0,1,7.88-19.39q7.89-7.71,21.11-7.71,12.55,0,19.62,7.17a23.52,23.52,0,0,1,7.07,17.12,30.74,30.74,0,0,1-7.3,20.33q-4.26,5.12-14.27,11.77l22,26.39q2.17-6.59,3-9.84t1.75-9.1h14.08a90.75,90.75,0,0,1-5.57,22.28q-4.18,10.66-4.18,8.59l21.44,26.12h-19.07L2355,1417.38a59.32,59.32,0,0,1-12.31,10.71,42.5,42.5,0,0,1-22.49,5.93q-18.79,0-27.33-10.17a34.74,34.74,0,0,1-8.53-22.94q0-13.76,8.29-23,5.09-5.6,19-14Q2304,1355.13,2301.38,1349.11Zm35.62,67.7a34.26,34.26,0,0,0,10.08-9.39l-27.25-33.36q-11.53,7.74-15.06,11.86a22.1,22.1,0,0,0-5.4,15.07q0,9.65,7,14.83a24.69,24.69,0,0,0,15,5.19A28.45,28.45,0,0,0,2337,1416.81Zm-1.17-68.58a18.58,18.58,0,0,0,4.8-12.41,13.21,13.21,0,0,0-3.52-9.21,12.23,12.23,0,0,0-9.5-3.86q-9.09,0-12.61,6.08a13.44,13.44,0,0,0-1.8,6.83,18.34,18.34,0,0,0,2.77,9.61,88.89,88.89,0,0,0,9.2,11.92Q2332.9,1351.69,2335.83,1348.23Z"/><path class="cls-2" d="M2555.11,1313.69q17.78,9.46,21.75,33.19h-16.22q-2.91-13.26-12-19.31t-23-6.06q-16.46,0-27.7,12.61t-11.25,37.55q0,21.58,9.28,35.13t30.27,13.55q16,0,26.59-9.51t10.78-30.77h-37.88v-13.59h53.12v64.74H2568.3l-4-15.57q-8.18,9.15-14.5,12.69-10.62,6.09-27,6.09-21.15,0-36.38-13.92-16.61-17.46-16.61-47.93t16.24-48.35q15.42-17.13,39.94-17.13Q2542.85,1307.1,2555.11,1313.69Z"/><path class="cls-2" d="M2620.4,1310.23h55q13.57,0,22.4,4,16.74,7.74,16.74,28.58,0,10.86-4.49,17.79a32.52,32.52,0,0,1-12.56,11.12q7.08,2.88,10.67,7.57t4,15.24l.58,16.23a49.82,49.82,0,0,0,1.15,10.29c1,3.84,2.75,6.32,5.27,7.41v2.72h-20.09a15.1,15.1,0,0,1-1.32-4,77.9,77.9,0,0,1-.82-9.56l-1-20.18q-.57-11.85-8.56-15.89-4.57-2.24-14.33-2.23h-36.25v51.89H2620.4Zm53.24,55.43q11.21,0,17.74-4.61t6.52-16.64q0-12.93-9.13-17.63-4.89-2.46-13.05-2.47h-38.93v41.35Z"/><path class="cls-2" d="M2756.6,1310.23h16.55v121H2756.6Z"/><path class="cls-2" d="M2812.4,1310.23h16.4v106.58h60.7v14.41h-77.1Z"/><path class="cls-2" d="M2918.87,1310.23h16.39v106.58H2996v14.41h-77.09Z"/><path class="cls-2" d="M3114.5,1370.77a17.83,17.83,0,0,1-5.15,13.09,19,19,0,0,1-26.11,0,17.83,17.83,0,0,1-5.15-13.09,17.59,17.59,0,0,1,5.15-13,19.26,19.26,0,0,1,26.11,0A17.59,17.59,0,0,1,3114.5,1370.77Z"/></g></g></svg>